<?xml version="1.0" encoding="UTF-8"?><svg id="Capa_2" xmlns="http://www.w3.org/2000/svg" viewBox="0 0 16 16"><defs><style>.cls-1{fill:#f1941b;}.cls-2{fill:none;}.cls-3{fill:#82ac29;}</style></defs><g id="Capa_1-2"><g><g><path class="cls-1" d="M14.62,3.16c.16,.15,.33,.28,.47,.44,.36,.4,.56,.87,.69,1.39,.2,.78,.22,1.58,.22,2.38,0,.73-.05,1.46-.18,2.17-.15,.86-.4,1.69-.88,2.43-.22,.35-.5,.67-.78,.97-.41,.43-.92,.73-1.47,.95-.5,.21-1.02,.34-1.56,.39-.28,.03-.56,.08-.84,.08-.39,0-.79-.02-1.18-.08-.39-.06-.77-.16-1.15-.26-.25-.07-.49-.18-.74-.28-.02,0-.03-.02-.07-.05,.12-.07,.23-.13,.33-.2,.42-.29,.67-.71,.87-1.18,.26-.59,.58-1.96,.63-3.93,0-.31-.02-.63-.03-.94,0-.31-.04-.63-.03-.94,.01-.46-.04-.93,.1-1.39,.11-.6,.24-1.07,.64-1.53,.21-.17,.42-.35,.65-.49,.54-.33,1.16-.35,1.76-.29,.22,.02,.44,.17,.65,.28,.24,.13,.43,.32,.57,.56,.13,.21,.26,.41,.39,.61,.14,.22,.2,.47,.2,.72,0,.44-.01,.88-.05,1.32-.01,.15-.12,.29-.17,.44-.12,.4-.41,.64-.75,.84-.2,.11-.42,.12-.64,.12-.42,0-.83-.05-1.22-.23-.44-.21-.72-.56-.85-1.02-.12-.42-.08-.86,.06-1.26,.09-.28,.25-.58,.59-.65,.45-.1,.88-.05,1.24,.29,.07,.06,.15,.12,.22,.18,.37,.3,.47,.9,0,1.26-.05,.04-.14,.06-.21,.05-.25-.02-.45-.12-.56-.36-.07-.17-.14-.34-.2-.51-.03-.1-.08-.17-.19-.19-.11-.02-.2,.01-.26,.1-.11,.14-.16,.29-.18,.48-.03,.35,.1,.62,.32,.87,.2,.22,.46,.28,.72,.33,.14,.03,.29,.04,.44,.07,.23,.04,.43-.04,.59-.17,.52-.41,.6-.95,.47-1.56-.08-.38-.24-.71-.47-1.02-.25-.34-.59-.58-1.01-.65-.3-.05-.62-.04-.93,0-.25,.03-1.02,.47-1.12,1.21-.09,.62-.22,1.23-.19,1.86,.02,.31,.07,.63,.08,.94,.01,.27,0,.54,0,.81,0,.15,0,.3,0,.46,.04,.78,.09,1.55,.13,2.33,.01,.21,.04,.41,.03,.62,0,.3,.08,.58,.18,.87,.04,.12,.23,.22,.35,.2,.14-.02,.28-.16,.29-.3v-.03c.02-.6,.04-1.19,.05-1.79,0-.38,0-.75,0-1.13,0-.33-.03-.66-.04-.98,0-.12,.02-.24,.04-.4,.2,.07,.38,.13,.56,.2,.03,.01,.04,.08,.04,.12,.02,.4,.04,.81,.05,1.21,.01,.47,.02,.94,.03,1.42,0,.1,0,.2,0,.3,.05,.45,.1,.89,.15,1.33,0,.07,.02,.14,.02,.21,.01,.25,.22,.43,.48,.4,.11-.01,.16-.07,.18-.18,.08-.5,0-.99-.03-1.49-.02-.3,0-.61-.02-.92-.02-.39-.04-.78-.06-1.17,0-.19-.01-.38-.02-.57,0-.13-.03-.25-.02-.38,0-.08,.02-.18,.07-.22,.07-.06,.25,0,.3,.08,.04,.08,.09,.16,.09,.25,.05,.51,.1,1.03,.14,1.54,.04,.45,.09,.89,.11,1.34,.01,.28,.1,.53,.21,.78,.07,.15,.19,.19,.35,.21,.15,.01,.2-.09,.25-.2,.13-.29,.09-.59,.06-.89-.03-.36-.09-.72-.11-1.08-.04-.51-.06-1.02-.08-1.53,0-.17,.01-.35,.03-.52,.02-.17,.15-.14,.27-.14,.12,0,.16,.04,.17,.15,.04,.49,.09,.97,.14,1.46,.03,.33,.06,.65,.12,.97,.03,.15,.12,.3,.19,.44,.06,.11,.15,.16,.28,.13,.14-.03,.18-.13,.18-.25,.01-.35,.03-.69,.02-1.04-.01-.5-.05-.99-.07-1.49-.01-.4,0-.8,0-1.2,0-.61,.03-1.22,.04-1.83,0-.26,.02-.52,0-.78-.04-.54-.02-1.09-.19-1.61-.02-.06-.01-.12-.02-.18l.05-.03Z"/><path class="cls-3" d="M8.7,3.29c.15-.33,.47-1,.47-1-.97,.03-1.89-.14-3.3-.32s-3.23-.59-4.49-.12C.12,2.32-.27,3.46,.18,5.73c.44,2.27,2.09,4.13,2.09,4.13,.01-.61,.03-1.22,.04-1.83,0-.4,0-.8,0-1.2-.01-.5-.06-.99-.07-1.49,0-.34,.01-.69,.02-1.04,0-.12,.04-.22,.18-.25,.13-.03,.22,.02,.28,.13,.07,.14,.16,.29,.19,.44,.06,.32,.09,.65,.12,.97,.05,.49,.09,.97,.14,1.46,0,.11,.06,.16,.17,.15,.11,0,.25,.03,.27-.14,.02-.17,.03-.35,.03-.52-.02-.51-.04-1.02-.08-1.53-.03-.36-.08-.72-.11-1.08-.03-.3-.07-.6,.06-.89,.05-.11,.1-.21,.25-.2,.15,.01,.28,.06,.35,.21,.11,.25,.2,.5,.21,.78,.02,.45,.07,.89,.11,1.34,.05,.51,.09,1.03,.14,1.54,0,.09,.05,.17,.09,.25,.05,.08,.23,.14,.3,.08,.05-.05,.07-.15,.07-.22,0-.12-.02-.25-.02-.38,0-.19-.01-.38-.02-.57-.02-.39-.05-.78-.06-1.17-.01-.31,0-.61-.02-.92-.03-.5-.12-.99-.03-1.49,.02-.11,.07-.17,.18-.18,.25-.03,.46,.15,.48,.4,0,.07,.01,.14,.02,.21,.05,.44,.1,.89,.15,1.33,.01,.1,0,.2,0,.3,.01,.47,.02,.94,.03,1.42,.01,.4,.03,.81,.05,1.21,0,.04,.02,.11,.04,.12,.17,.07,.36,.13,.56,.2,.02-.16,.04-.28,.04-.4,0-.33-.03-.66-.04-.98,0-.38,0-.75,0-1.13,.01-.6,.03-1.19,.05-1.79v-.03c.02-.13,.15-.27,.29-.3,.12-.02,.31,.08,.35,.2,.09,.28,.18,.56,.18,.87,0,.21,.02,.41,.03,.62,.05,.78,.09,1.55,.13,2.33,0,.15,0,.3,0,.46,0,.27-.02,.54,0,.81,.01,.31,.07,.63,.08,.94,.03,.63-.07,1.25-.19,1.86s-.88,1.18-1.12,1.21c-.3,.04-.63,.05-.93,0-.42-.07-.75-.31-1.01-.65-.23-.31-.39-.64-.47-1.02-.13-.61-.05-1.16,.47-1.56,.17-.13,.37-.21,.59-.17,.15,.02,.29,.04,.44,.07,.26,.05,.52,.12,.72,.33,.23,.25,.36,.52,.32,.87-.02,.18-.06,.34-.18,.48-.07,.08-.15,.12-.26,.1-.11-.02-.15-.09-.19-.19-.06-.17-.13-.35-.2-.51-.11-.24-.31-.34-.56-.36-.07,0-.16,.01-.21,.05-.46,.35-.37,.96,0,1.26,.07,.06,.15,.11,.22,.18,.36,.34,.79,.39,1.24,.29,.34-.07,.5-.37,.59-.65,.13-.4,.17-.84,.06-1.26-.13-.46-.41-.82-.85-1.02-.39-.18-.52-.3-.94-.3-.22,0-.61-.08-.81,.04-.34,.2-.72,.34-.84,.74-.04,.15-.28,.51-.29,.66-.04,.44-.06,.88-.05,1.32,0,.1,.03,.2,.06,.29,.31,.31,1.14,1.11,2.22,1.91,.48,.01,.96-.05,1.39-.32,.23-.14,.44-.32,.65-.49,.08-.07,.16-.16,.21-.26,.2-.41,.31-.84,.44-1.27,.13-.46,.08-.93,.1-1.39,0-.31-.02-.63-.03-.94,0-.31-.04-.63-.03-.94,.05-1.96,.37-3.34,.63-3.93Z"/></g><rect class="cls-2" x="0" width="15.99" height="16"/></g></g></svg>