<?xml version="1.0" encoding="UTF-8"?><svg id="Capa_2" xmlns="http://www.w3.org/2000/svg" viewBox="0 0 232.39 94.96"><defs><style>.cls-1{fill:#fff;}.cls-2{fill:none;}</style></defs><g id="Capa_4"><g><g><g><path class="cls-1" d="M45.89,11.85h-5.42c-.31,0-.56-.25-.56-.56s.25-.56,.56-.56h5.42c.31,0,.56,.25,.56,.56s-.25,.56-.56,.56Z"/><path class="cls-1" d="M52.28,14.05h-18.31c-.31,0-.56-.25-.56-.56s.25-.56,.56-.56h18.31c.31,0,.56,.25,.56,.56s-.25,.56-.56,.56Z"/><path class="cls-1" d="M35.71,16.4h-4.91c-.31,0-.56-.25-.56-.56s.25-.56,.56-.56h4.91c.31,0,.56,.25,.56,.56s-.25,.56-.56,.56Z"/><path class="cls-1" d="M32.94,18.55h-4.81c-.31,0-.56-.25-.56-.56s.25-.56,.56-.56h4.81c.31,0,.56,.25,.56,.56s-.25,.56-.56,.56Z"/><path class="cls-1" d="M30.8,21.01h-4.81c-.31,0-.56-.25-.56-.56s.25-.56,.56-.56h4.81c.31,0,.56,.25,.56,.56s-.25,.56-.56,.56Z"/><path class="cls-1" d="M31.41,32.47h-11.25c-.31,0-.56-.25-.56-.56s.25-.56,.56-.56h11.25c.31,0,.56,.25,.56,.56s-.25,.56-.56,.56Z"/><path class="cls-1" d="M32.43,35.33h-12.99c-.31,0-.56-.25-.56-.56s.25-.56,.56-.56h12.99c.31,0,.56,.25,.56,.56s-.25,.56-.56,.56Z"/><path class="cls-1" d="M31.92,38.2h-13.3c-.31,0-.56-.25-.56-.56s.25-.56,.56-.56h13.3c.31,0,.56,.25,.56,.56s-.25,.56-.56,.56Z"/><path class="cls-1" d="M29.26,41.16h-11.15c-.31,0-.56-.25-.56-.56s.25-.56,.56-.56h11.15c.31,0,.56,.25,.56,.56s-.25,.56-.56,.56Z"/><path class="cls-1" d="M27.01,44.13h-9.21c-.31,0-.56-.25-.56-.56s.25-.56,.56-.56h9.21c.31,0,.56,.25,.56,.56s-.25,.56-.56,.56Z"/><path class="cls-1" d="M25.07,47.2h-7.47c-.31,0-.56-.25-.56-.56s.25-.56,.56-.56h7.47c.31,0,.56,.25,.56,.56s-.25,.56-.56,.56Z"/><path class="cls-1" d="M23.33,50.17h-5.52c-.31,0-.56-.25-.56-.56s.25-.56,.56-.56h5.52c.31,0,.56,.25,.56,.56s-.25,.56-.56,.56Z"/><path class="cls-1" d="M68.34,54.36c-.19,0-.37-.09-.47-.26l-12.31-19.21-11.86,18.8c-.1,.17-.29,.27-.48,.26-.2,0-.38-.11-.48-.28l-8.62-14.61-10.34,14.34c-.11,.15-.28,.23-.46,.23h-5.22c-.31,0-.56-.25-.56-.56s.25-.56,.56-.56h4.93l10.68-14.81c.11-.15,.3-.24,.48-.23,.19,0,.36,.11,.46,.28l8.59,14.56,11.84-18.77c.1-.16,.28-.26,.47-.26h0c.19,0,.37,.1,.47,.26l12.79,19.95c.17,.26,.09,.61-.17,.78-.09,.06-.2,.09-.3,.09Z"/><path class="cls-1" d="M43.23,63.96h0c-.19,0-.37-.1-.48-.26l-9.12-14.51-7.39,10.37c-.11,.15-.28,.24-.46,.24h-6.85c-.31,0-.56-.25-.56-.56s.25-.56,.56-.56h6.56l7.71-10.81c.11-.15,.29-.24,.47-.24,.19,0,.36,.1,.46,.26l9.09,14.47,11.92-18.82c.1-.16,.28-.26,.47-.26h0c.19,0,.37,.1,.47,.26l11.28,17.55c.17,.26,.09,.61-.17,.78-.26,.17-.61,.09-.78-.17l-10.81-16.8-11.93,18.83c-.1,.16-.28,.26-.48,.26Z"/><path class="cls-1" d="M38.99,62.85c-.19,0-.38-.1-.49-.28l-4.99-8.46-6.05,8.5c-.11,.15-.28,.24-.46,.24h-7.06c-.31,0-.56-.25-.56-.56s.25-.56,.56-.56h6.77l6.38-8.97c.11-.16,.3-.24,.48-.24,.19,0,.36,.11,.46,.28l5.43,9.21c.16,.27,.07,.61-.2,.77-.09,.05-.19,.08-.29,.08Z"/><path class="cls-1" d="M57.7,78.4H28.55c-.31,0-.56-.25-.56-.56s.25-.56,.56-.56h29.16c.31,0,.56,.25,.56,.56s-.25,.56-.56,.56Z"/><path class="cls-1" d="M54.33,81.17h-22.3c-.31,0-.56-.25-.56-.56s.25-.56,.56-.56h22.3c.31,0,.56,.25,.56,.56s-.25,.56-.56,.56Z"/><path class="cls-1" d="M50.85,84.23h-14.83c-.31,0-.56-.25-.56-.56s.25-.56,.56-.56h14.83c.31,0,.56,.25,.56,.56s-.25,.56-.56,.56Z"/><path class="cls-1" d="M55.76,16.2h-2.56c-.31,0-.56-.25-.56-.56s.25-.56,.56-.56h2.56c.31,0,.56,.25,.56,.56s-.25,.56-.56,.56Z"/><path class="cls-1" d="M58.21,18.76h-1.84c-.31,0-.56-.25-.56-.56s.25-.56,.56-.56h1.84c.31,0,.56,.25,.56,.56s-.25,.56-.56,.56Z"/><path class="cls-1" d="M60.57,21.01h-2.15c-.31,0-.56-.25-.56-.56s.25-.56,.56-.56h2.15c.31,0,.56,.25,.56,.56s-.25,.56-.56,.56Z"/><path class="cls-1" d="M62.31,24.18h-4.5c-.26,0-.49-.18-.55-.44,0-.03-.74-3.02-4.59-5.81-4.08-2.96-10.57-2.7-14.24-.78-3.87,2.03-5.97,6.64-5.99,6.69-.09,.2-.29,.33-.51,.33h-8.08c-.31,0-.56-.25-.56-.56s.25-.56,.56-.56h7.73c.58-1.16,2.7-4.99,6.33-6.89,2.11-1.11,4.91-1.68,7.7-1.57,2.97,.11,5.72,.98,7.73,2.43,3.37,2.44,4.54,5.02,4.89,6.03h4.08c.31,0,.56,.25,.56,.56s-.25,.56-.56,.56Z"/><path class="cls-1" d="M64.15,26.94h-7.98c-.26,0-.49-.18-.55-.43,0-.02-.54-2.19-2.19-4.32-2.18-2.82-5.18-4.25-8.93-4.25s-6.67,1.42-8.71,4.23c-1.55,2.13-1.98,4.29-1.99,4.31-.05,.26-.28,.46-.55,.46h-10.95c-.31,0-.56-.25-.56-.56s.25-.56,.56-.56h10.5c.22-.8,.79-2.53,2.05-4.27,1.56-2.16,4.5-4.74,9.65-4.74s8.19,2.57,9.85,4.72c1.35,1.75,1.99,3.49,2.24,4.28h7.56c.31,0,.56,.25,.56,.56s-.25,.56-.56,.56Z"/><path class="cls-1" d="M43.23,39.15c-4.07,0-6.68-2.12-8.16-3.89-1.58-1.89-2.42-4.05-2.63-5.56h-11.35c-.31,0-.56-.25-.56-.56s.25-.56,.56-.56h11.87c.3,0,.55,.24,.56,.54,.05,1.27,.82,3.51,2.42,5.42,1.33,1.59,3.67,3.49,7.3,3.49,5.96,0,8.18-5.07,8.18-8.27,0-3.89-3.42-6.6-6.5-6.6-2.75,0-5.68,1.74-5.68,4.96s2.39,4.44,3.99,4.44c.87,0,1.66-.37,2.16-1.03,.46-.59,.6-1.32,.41-2.04-.2-.75-.78-1-.96-1.05-.26-.08-.44-.06-.51-.03,0,.03,.02,.09,.06,.17,.27,.54,.59,1.32,.23,1.9-.34,.55-1.07,.55-1.35,.55-1.65,0-2.51-1.31-2.51-2.61,0-2.42,2.26-3.63,3.53-3.63,.81,0,2,.13,3.08,.74,1.06,.6,2.34,1.87,2.4,4.52,.04,1.58-.5,2.94-1.59,4.06-1.72,1.76-4.23,2.31-4.95,2.31-.09,0-2.21-.01-4.27-1.32-1.6-1.01-3.5-3.06-3.5-7.08s2.45-6.33,4.5-7.38c2.18-1.12,4.33-1.26,4.42-1.26h.03c4.9,0,7.66,2.64,9.12,4.86,1.16,1.77,1.68,3.53,1.88,4.35h9.98c.31,0,.56,.25,.56,.56s-.25,.56-.56,.56h-10.44c-.28,0-.51-.2-.56-.47,0-.02-.39-2.24-1.83-4.42-1.89-2.86-4.63-4.31-8.13-4.32-.19,.01-2.11,.18-3.99,1.16-2.56,1.32-3.86,3.46-3.86,6.36s1,4.88,2.98,6.13c1.79,1.13,3.65,1.15,3.67,1.15,.47,0,2.71-.49,4.15-1.97,.87-.89,1.3-1.99,1.27-3.25-.08-3.62-2.76-4.16-4.35-4.16-.68,0-2.4,.75-2.4,2.51,0,.51,.29,1.48,1.38,1.48,.22,0,.33-.02,.38-.04,0-.08-.03-.31-.27-.79-.34-.69-.12-1.15,.04-1.36,.3-.4,.87-.56,1.5-.43,.75,.15,1.66,.73,1.97,1.91,.28,1.05,.05,2.15-.61,3.02-.72,.93-1.83,1.46-3.05,1.46-2.48,0-5.12-1.95-5.12-5.56,0-1.75,.74-3.33,2.1-4.46,1.26-1.05,2.93-1.63,4.71-1.63s3.7,.79,5.14,2.12c1.6,1.48,2.48,3.47,2.48,5.61,0,3.63-2.53,9.4-9.31,9.4Z"/><path class="cls-1" d="M66.4,32.47h-11.25c-.31,0-.56-.25-.56-.56s.25-.56,.56-.56h11.25c.31,0,.56,.25,.56,.56s-.25,.56-.56,.56Z"/><path class="cls-1" d="M67.12,35.33h-7.57c-.31,0-.56-.25-.56-.56s.25-.56,.56-.56h7.57c.31,0,.56,.25,.56,.56s-.25,.56-.56,.56Z"/><path class="cls-1" d="M67.73,38.2h-6.96c-.31,0-.56-.25-.56-.56s.25-.56,.56-.56h6.96c.31,0,.56,.25,.56,.56s-.25,.56-.56,.56Z"/><path class="cls-1" d="M68.14,40.86h-5.83c-.31,0-.56-.25-.56-.56s.25-.56,.56-.56h5.83c.31,0,.56,.25,.56,.56s-.25,.56-.56,.56Z"/><path class="cls-1" d="M68.65,43.62h-4.81c-.31,0-.56-.25-.56-.56s.25-.56,.56-.56h4.81c.31,0,.56,.25,.56,.56s-.25,.56-.56,.56Z"/><path class="cls-1" d="M68.65,46.79h-3.07c-.31,0-.56-.25-.56-.56s.25-.56,.56-.56h3.07c.31,0,.56,.25,.56,.56s-.25,.56-.56,.56Z"/><path class="cls-1" d="M69.37,49.65h-1.64c-.31,0-.56-.25-.56-.56s.25-.56,.56-.56h1.64c.31,0,.56,.25,.56,.56s-.25,.56-.56,.56Z"/><path class="cls-1" d="M43.37,42.14c-3.3,0-5.52-1.28-5.66-1.36-.27-.16-.36-.5-.2-.77,.16-.27,.5-.36,.77-.2h0s4.69,2.67,10.37-.02c.28-.13,.62-.01,.75,.27,.13,.28,.01,.62-.27,.75-2.11,1-4.08,1.34-5.77,1.34Z"/><path class="cls-1" d="M43.5,44.97c-2.18,0-3.81-.64-3.91-.68-.29-.12-.43-.44-.31-.73,.12-.29,.44-.43,.73-.31h0s3.42,1.33,6.74,0c.29-.12,.62,.03,.73,.31,.12,.29-.03,.62-.31,.73-1.28,.51-2.55,.68-3.67,.68Z"/><path class="cls-1" d="M43.27,47.7c-1.33,0-2.41-.53-2.48-.56-.28-.14-.39-.48-.25-.76,.14-.28,.48-.39,.75-.25,.03,.01,2.01,.97,3.59,.02,.27-.16,.61-.07,.77,.19s.07,.61-.19,.77c-.73,.44-1.5,.58-2.2,.58Z"/><path class="cls-1" d="M43.23,59.02h0c-.2,0-.38-.11-.48-.28l-8.82-14.86-8.92,12.59c-.11,.15-.28,.24-.46,.24h-6.23c-.31,0-.56-.25-.56-.56s.25-.56,.56-.56h5.94l9.25-13.06c.11-.16,.29-.25,.48-.24,.19,0,.36,.11,.46,.28l8.79,14.81,11.74-18.91c.1-.16,.28-.26,.47-.27h0c.19,0,.37,.1,.47,.26l12.28,18.94c.17,.26,.09,.61-.17,.78-.26,.17-.61,.09-.78-.17l-11.79-18.2-11.76,18.95c-.1,.17-.28,.27-.48,.27Z"/><path class="cls-1" d="M31.1,62.34c-.11,0-.21-.03-.31-.09-.26-.17-.33-.52-.16-.78l2.19-3.32c.11-.16,.29-.26,.49-.25,.19,0,.37,.11,.47,.28l1.8,3.11c.16,.27,.06,.61-.21,.77-.27,.16-.61,.06-.77-.21l-1.35-2.33-1.69,2.56c-.11,.16-.29,.25-.47,.25Z"/><path class="cls-1" d="M65.79,65.41c-.19,0-.37-.09-.47-.26l-9.59-15.01-8.28,13.11c-.17,.26-.51,.34-.78,.18s-.34-.51-.18-.78l8.76-13.85c.1-.16,.28-.26,.47-.26,.19,0,.37,.1,.48,.26l10.07,15.76c.17,.26,.09,.61-.17,.78-.09,.06-.2,.09-.3,.09Z"/><path class="cls-1" d="M50.85,62.55c-.11,0-.21-.03-.31-.09-.26-.17-.33-.52-.16-.78l4.91-7.47c.1-.16,.29-.25,.47-.25,.19,0,.37,.1,.47,.26l4.62,7.26c.17,.26,.09,.61-.17,.78-.26,.17-.61,.09-.78-.17l-4.16-6.53-4.43,6.74c-.11,.16-.29,.25-.47,.25Z"/><path class="cls-1" d="M54.42,62.34c-.11,0-.23-.03-.33-.11-.25-.18-.31-.53-.13-.79l1.2-1.66c.11-.15,.28-.24,.47-.23,.18,0,.35,.1,.46,.25l.76,1.12c.17,.26,.11,.61-.15,.78-.26,.17-.61,.11-.78-.15l-.31-.45-.73,1.01c-.11,.15-.28,.23-.46,.23Z"/><path class="cls-1" d="M65.32,66.94c-.07,0-.14-.01-.2-.04l-8.23-3.21-13.84,2.94c-.1,.02-.2,.02-.29-.02l-9-2.93-12.63,3.23c-.3,.08-.61-.1-.68-.41s.1-.61,.41-.68l12.79-3.27c.1-.03,.21-.02,.31,0l9.01,2.93,13.86-2.95c.11-.02,.22-.01,.32,.03l8.39,3.27c.29,.11,.43,.44,.32,.73-.09,.22-.3,.36-.52,.36Z"/><path class="cls-1" d="M64.05,70.12c-.07,0-.14-.01-.2-.04l-7.52-2.91-12.98,2.7c-.09,.02-.19,.01-.28-.01l-9.24-2.88-11.14,3.13c-.3,.08-.61-.09-.69-.39-.08-.3,.09-.61,.39-.69l11.3-3.17c.1-.03,.22-.03,.32,0l9.26,2.89,13-2.71c.11-.02,.22-.01,.32,.03l7.67,2.97c.29,.11,.43,.44,.32,.73-.09,.22-.3,.36-.52,.36Z"/><path class="cls-1" d="M62.2,73.29c-.07,0-.15-.01-.22-.04l-6.43-2.67-12.02,2.39c-.09,.02-.19,.01-.28-.02l-8.77-2.81-10.4,2.92c-.3,.08-.61-.09-.69-.39-.08-.3,.09-.61,.39-.69l10.56-2.97c.11-.03,.22-.03,.32,0l8.79,2.81,12.04-2.39c.11-.02,.22-.01,.33,.03l6.59,2.74c.29,.12,.42,.45,.3,.74-.09,.22-.3,.35-.52,.35Z"/><path class="cls-1" d="M26.09,76.36c-.24,0-.46-.15-.54-.39-.09-.3,.07-.61,.37-.71l9-2.85c.11-.04,.23-.03,.34,0l8,2.6,11.37-2.13c.11-.02,.23,0,.33,.04l5.29,2.35c.28,.13,.41,.46,.29,.74-.13,.28-.46,.41-.74,.29l-5.13-2.28-11.34,2.12c-.09,.02-.19,.01-.28-.02l-7.96-2.59-8.83,2.79c-.06,.02-.11,.03-.17,.03Z"/></g><path class="cls-1" d="M89.26,47.65c-.57,0-1.04-.21-1.4-.62-.35-.39-.53-.97-.53-1.72v-11.02h-2.93c-.62,0-1.1-.16-1.43-.47-.34-.32-.5-.73-.5-1.24s.18-.95,.53-1.26c.34-.3,.81-.45,1.41-.45h9.7c.63,0,1.12,.16,1.45,.47,.34,.32,.51,.74,.51,1.24s-.17,.92-.52,1.24c-.34,.31-.82,.46-1.44,.46h-2.93v11.02c0,.75-.17,1.33-.52,1.73-.36,.41-.82,.61-1.39,.61Z"/><path class="cls-1" d="M104.06,47.65c-1.19,0-2.24-.14-3.11-.41-.89-.28-1.64-.72-2.21-1.31-.57-.59-.99-1.35-1.26-2.27-.26-.89-.39-1.95-.39-3.17v-7.56c0-.74,.17-1.31,.51-1.71,.36-.41,.82-.62,1.39-.62s1.07,.21,1.43,.62c.34,.4,.51,.97,.51,1.71v7.73c0,.83,.09,1.53,.26,2.08,.16,.51,.44,.89,.85,1.16,.41,.28,1.01,.42,1.79,.42,1.07,0,1.79-.27,2.21-.83,.44-.59,.66-1.52,.66-2.77v-7.79c0-.75,.17-1.32,.51-1.71,.35-.41,.82-.61,1.4-.61s1.05,.2,1.41,.61c.35,.39,.53,.97,.53,1.72v7.56c0,1.26-.12,2.33-.36,3.18-.25,.89-.72,1.67-1.4,2.34-.59,.57-1.28,.99-2.06,1.25-.76,.26-1.66,.38-2.67,.38Z"/><path class="cls-1" d="M124.5,47.65c-.43,0-.79-.11-1.09-.33-.27-.19-.51-.44-.7-.74-.17-.26-.4-.65-.69-1.16l-1.22-2.12c-.43-.76-.81-1.34-1.14-1.72-.3-.36-.61-.6-.91-.73-.3-.13-.71-.19-1.19-.19h-.67v4.65c0,.76-.18,1.35-.52,1.73-.36,.4-.83,.6-1.39,.6-.61,0-1.09-.22-1.44-.64-.32-.4-.49-.97-.49-1.7v-12.09c0-.79,.19-1.38,.55-1.76,.37-.39,.95-.58,1.71-.58h4.96c.69,0,1.3,.03,1.81,.09,.53,.07,1.01,.2,1.44,.41,.51,.22,.97,.55,1.37,.97,.4,.42,.7,.92,.91,1.48,.2,.55,.31,1.15,.31,1.76,0,1.27-.35,2.3-1.05,3.07-.54,.59-1.29,1.06-2.25,1.38,.32,.26,.63,.57,.93,.92,.51,.6,.96,1.25,1.36,1.92,.4,.68,.71,1.3,.93,1.84,.32,.78,.35,1.09,.35,1.25,0,.28-.08,.56-.25,.82-.16,.26-.39,.47-.67,.62-.28,.15-.6,.22-.95,.22Zm-7.62-10.06h2.34c.69,0,1.28-.06,1.75-.19,.42-.11,.73-.29,.94-.54,.2-.24,.3-.6,.3-1.06,0-.36-.08-.67-.26-.94-.17-.27-.4-.46-.71-.59-.21-.09-.72-.2-1.95-.2h-2.42v3.53Z"/><path class="cls-1" d="M130.22,47.65c-.56,0-1.02-.21-1.38-.62-.35-.4-.52-.97-.52-1.71v-12.38c0-.74,.17-1.31,.52-1.71,.36-.41,.82-.62,1.39-.62s1.05,.21,1.41,.61c.35,.39,.53,.97,.53,1.72v12.38c0,.75-.18,1.32-.53,1.72-.36,.41-.84,.62-1.41,.62Z"/><path class="cls-1" d="M148.15,47.65c-.52,0-.96-.2-1.3-.59-.32-.37-.49-.91-.49-1.61v-7.51l-1.63,6.77c-.16,.67-.29,1.15-.39,1.46-.12,.36-.34,.7-.65,1-.34,.32-.81,.48-1.38,.48-.43,0-.81-.1-1.12-.3-.3-.2-.54-.45-.71-.76-.15-.27-.27-.58-.36-.92-.08-.31-.16-.62-.24-.95h0l-1.63-6.77v7.51c0,.69-.16,1.24-.48,1.61-.34,.39-.78,.59-1.32,.59s-.97-.19-1.3-.58c-.32-.37-.49-.91-.49-1.62v-12.43c0-.82,.23-1.4,.68-1.71,.41-.29,.95-.43,1.61-.43h.95c.63,0,1.08,.06,1.39,.19,.35,.15,.61,.41,.78,.78,.13,.3,.28,.77,.44,1.43l1.8,7.09,1.8-7.1c.17-.66,.31-1.13,.44-1.42,.16-.37,.43-.64,.78-.78,.31-.13,.77-.19,1.39-.19h.95c.66,0,1.2,.14,1.61,.43,.45,.32,.68,.89,.68,1.71v12.43c0,.69-.16,1.23-.48,1.61-.34,.39-.78,.59-1.33,.59Z"/><path class="cls-1" d="M162.87,47.38h-8.29c-.78,0-1.35-.2-1.72-.58-.36-.38-.54-.97-.54-1.76v-11.81c0-.52,.08-.94,.23-1.28,.17-.38,.44-.65,.8-.83,.33-.16,.75-.24,1.23-.24h8.05c.59,0,1.05,.15,1.36,.45,.32,.3,.48,.69,.48,1.17s-.16,.88-.48,1.18c-.31,.3-.77,.45-1.36,.45h-6.48v3.07h5.93c.57,0,1.01,.15,1.32,.44,.31,.29,.47,.68,.47,1.15s-.15,.85-.46,1.15c-.3,.3-.75,.45-1.33,.45h-5.93v3.68h6.71c.58,0,1.04,.15,1.36,.46,.32,.31,.49,.72,.49,1.21s-.16,.88-.49,1.19c-.32,.3-.78,.46-1.36,.46Z"/><path class="cls-1" d="M171.68,47.65c-.57,0-1.04-.21-1.4-.62-.35-.39-.53-.97-.53-1.72v-11.02h-2.93c-.62,0-1.1-.16-1.43-.47-.34-.32-.5-.73-.5-1.24s.18-.95,.53-1.26c.34-.3,.81-.45,1.41-.45h9.7c.63,0,1.12,.16,1.45,.47,.34,.32,.51,.74,.51,1.24s-.17,.92-.52,1.24c-.34,.31-.82,.46-1.44,.46h-2.93v11.02c0,.75-.17,1.33-.52,1.73-.36,.41-.82,.61-1.39,.61Z"/><path class="cls-1" d="M190.94,47.65c-.43,0-.79-.11-1.09-.33-.27-.19-.51-.44-.7-.74-.17-.26-.4-.65-.69-1.16l-1.22-2.12c-.43-.76-.81-1.34-1.14-1.72-.3-.36-.61-.6-.91-.73-.3-.13-.71-.19-1.19-.19h-.67v4.65c0,.76-.18,1.35-.52,1.73-.36,.4-.83,.6-1.39,.6-.61,0-1.09-.22-1.44-.64-.32-.4-.49-.97-.49-1.7v-12.09c0-.79,.19-1.38,.55-1.76,.37-.39,.95-.58,1.71-.58h4.96c.69,0,1.3,.03,1.81,.09,.53,.07,1.01,.2,1.44,.41,.51,.22,.97,.55,1.37,.97,.4,.42,.7,.92,.91,1.48,.2,.55,.31,1.15,.31,1.76,0,1.27-.35,2.3-1.05,3.07-.54,.59-1.29,1.06-2.25,1.38,.32,.26,.63,.57,.93,.92,.51,.6,.96,1.25,1.36,1.92,.4,.68,.71,1.3,.93,1.84,.32,.78,.35,1.09,.35,1.25,0,.28-.08,.56-.25,.82-.16,.26-.39,.47-.67,.62-.28,.15-.6,.22-.95,.22Zm-7.62-10.06h2.34c.69,0,1.28-.06,1.75-.19,.42-.11,.73-.29,.94-.54,.2-.24,.3-.6,.3-1.06,0-.36-.08-.67-.26-.94-.17-.27-.4-.46-.71-.59-.21-.09-.72-.2-1.95-.2h-2.42v3.53Z"/><path class="cls-1" d="M196.66,47.65c-.56,0-1.02-.21-1.38-.62-.35-.4-.52-.97-.52-1.71v-12.38c0-.74,.17-1.31,.52-1.71,.36-.41,.82-.62,1.39-.62s1.05,.21,1.41,.61c.35,.39,.53,.97,.53,1.72v12.38c0,.75-.18,1.32-.53,1.72-.36,.41-.84,.62-1.41,.62Z"/><path class="cls-1" d="M213.01,47.65c-.3,0-.57-.06-.8-.18-.22-.12-.41-.28-.57-.48-.14-.18-.27-.44-.42-.79-.14-.32-.25-.6-.35-.85h0l-.62-1.72h-5.57l-.63,1.75c-.3,.83-.55,1.38-.77,1.69-.28,.38-.71,.58-1.3,.58-.49,0-.93-.19-1.3-.55-.37-.37-.56-.8-.56-1.28,0-.25,.04-.51,.12-.78,.07-.24,.19-.56,.35-.98l4.25-11.25c.16-.44,.34-.81,.53-1.1,.21-.32,.48-.59,.82-.79,.69-.41,1.83-.4,2.52,0,.33,.2,.61,.46,.82,.77,.19,.29,.35,.6,.48,.93,.12,.31,.27,.71,.46,1.23l3.93,10.13c.33,.82,.49,1.42,.49,1.83,0,.47-.18,.9-.55,1.28-.37,.38-.82,.58-1.34,.58Zm-7.25-7.2h3.39l-1.71-4.88-1.68,4.88Z"/><g><path class="cls-1" d="M86.61,65.5v-5.14c0-.27,.06-.47,.18-.6,.12-.13,.28-.2,.47-.2s.36,.07,.48,.2c.12,.13,.18,.33,.18,.6v5.14c0,.27-.06,.47-.18,.61s-.28,.2-.48,.2-.35-.07-.47-.2c-.12-.13-.18-.34-.18-.6Z"/><path class="cls-1" d="M92.65,65.61v-.12c-.16,.19-.32,.34-.48,.46-.16,.12-.33,.21-.52,.27-.19,.06-.39,.09-.61,.09-.29,0-.56-.06-.81-.18s-.46-.3-.64-.53c-.18-.23-.32-.5-.41-.81-.09-.31-.14-.64-.14-1,0-.76,.19-1.35,.56-1.77s.86-.64,1.46-.64c.35,0,.65,.06,.89,.18,.24,.12,.48,.3,.7,.55v-1.79c0-.25,.05-.44,.15-.56,.1-.13,.24-.19,.43-.19s.32,.06,.42,.18c.1,.12,.15,.29,.15,.52v5.36c0,.23-.05,.4-.16,.52-.11,.12-.24,.17-.41,.17s-.3-.06-.41-.18-.16-.29-.16-.51Zm-2.39-1.78c0,.33,.05,.61,.15,.84,.1,.23,.24,.41,.42,.52,.18,.12,.37,.18,.58,.18s.41-.05,.58-.17,.32-.28,.42-.51,.16-.52,.16-.86c0-.32-.05-.6-.16-.83s-.25-.41-.43-.53-.38-.18-.59-.18-.42,.06-.6,.19-.31,.31-.41,.54c-.1,.24-.14,.51-.14,.82Z"/><path class="cls-1" d="M98.41,64.13h-2.38c0,.28,.06,.52,.17,.73s.25,.37,.43,.48,.38,.16,.59,.16c.15,0,.28-.02,.4-.05,.12-.03,.24-.09,.35-.16,.11-.07,.22-.15,.31-.23,.1-.08,.22-.2,.37-.34,.06-.05,.15-.08,.27-.08,.12,0,.23,.03,.3,.1,.08,.07,.12,.16,.12,.29,0,.11-.04,.24-.13,.38s-.22,.29-.39,.42c-.17,.14-.39,.25-.65,.34s-.56,.13-.91,.13c-.78,0-1.39-.22-1.82-.67s-.65-1.05-.65-1.81c0-.36,.05-.69,.16-1s.26-.57,.47-.79c.21-.22,.46-.39,.76-.51,.3-.12,.63-.18,1-.18,.47,0,.88,.1,1.22,.3s.59,.46,.76,.78c.17,.32,.25,.64,.25,.97,0,.31-.09,.5-.26,.59s-.42,.14-.74,.14Zm-2.38-.69h2.2c-.03-.41-.14-.73-.34-.93-.19-.21-.45-.31-.77-.31s-.55,.1-.75,.31c-.19,.21-.31,.52-.35,.93Z"/><path class="cls-1" d="M103.5,65.62c-.29,.23-.58,.4-.85,.51-.27,.11-.58,.17-.92,.17-.31,0-.58-.06-.82-.18s-.42-.29-.54-.5-.19-.44-.19-.68c0-.33,.11-.62,.32-.85,.21-.23,.5-.39,.87-.47,.08-.02,.27-.06,.57-.12,.31-.06,.57-.12,.79-.17,.22-.05,.45-.11,.71-.19-.01-.32-.08-.56-.19-.7-.11-.15-.35-.23-.71-.23-.31,0-.54,.04-.7,.13-.16,.09-.29,.22-.4,.39-.11,.17-.19,.29-.24,.34-.05,.05-.14,.08-.3,.08-.14,0-.25-.04-.35-.13-.1-.09-.15-.2-.15-.34,0-.21,.08-.42,.23-.62,.15-.2,.39-.37,.71-.5,.32-.13,.72-.2,1.2-.2,.53,0,.95,.06,1.26,.19s.52,.33,.65,.6c.13,.27,.19,.63,.19,1.08,0,.28,0,.53,0,.73s0,.42,0,.66c0,.23,.04,.47,.11,.71s.11,.41,.11,.48c0,.12-.06,.24-.18,.34-.12,.1-.25,.15-.4,.15-.12,0-.25-.06-.37-.18-.12-.12-.25-.29-.39-.51Zm-.08-1.76c-.18,.06-.44,.13-.78,.21s-.57,.13-.7,.16-.26,.1-.37,.2c-.12,.1-.18,.24-.18,.42s.07,.34,.21,.47c.14,.13,.32,.19,.55,.19,.24,0,.46-.05,.67-.16,.2-.11,.35-.24,.45-.41,.11-.18,.16-.49,.16-.91v-.17Z"/><path class="cls-1" d="M109.76,64.72c0,.34-.08,.62-.24,.86-.16,.24-.4,.42-.72,.54s-.71,.18-1.16,.18-.81-.07-1.12-.2c-.31-.13-.54-.3-.69-.5-.15-.2-.22-.4-.22-.6,0-.13,.05-.25,.14-.34,.1-.09,.22-.14,.36-.14,.13,0,.23,.03,.29,.09s.13,.15,.2,.26c.12,.22,.27,.38,.45,.49s.41,.16,.71,.16c.24,0,.44-.05,.6-.16,.16-.11,.23-.23,.23-.37,0-.21-.08-.37-.24-.47-.16-.1-.43-.19-.8-.28-.42-.1-.76-.21-1.02-.33-.26-.11-.47-.26-.63-.45-.16-.19-.24-.42-.24-.69,0-.24,.07-.47,.22-.69s.36-.39,.64-.52c.28-.13,.62-.19,1.03-.19,.31,0,.6,.03,.85,.1,.25,.06,.46,.15,.63,.26,.17,.11,.3,.23,.38,.36,.09,.13,.13,.26,.13,.39,0,.14-.05,.25-.14,.34s-.23,.13-.4,.13c-.12,0-.23-.04-.32-.11s-.19-.18-.3-.32c-.09-.12-.2-.21-.32-.28-.13-.07-.29-.11-.51-.11s-.4,.05-.55,.14-.22,.21-.22,.35c0,.13,.05,.23,.16,.31,.11,.08,.25,.15,.43,.2s.43,.12,.75,.2c.38,.09,.68,.2,.92,.33,.24,.13,.42,.28,.54,.45,.12,.17,.18,.37,.18,.59Z"/><path class="cls-1" d="M116.22,65.62v-.16c-.15,.18-.3,.34-.46,.46s-.34,.22-.52,.28c-.19,.06-.41,.09-.65,.09-.29,0-.56-.06-.79-.18-.23-.12-.41-.29-.54-.5-.15-.26-.23-.63-.23-1.11v-2.41c0-.24,.05-.42,.16-.54,.11-.12,.25-.18,.44-.18s.33,.06,.44,.18,.17,.3,.17,.54v1.94c0,.28,.02,.52,.07,.71,.05,.19,.13,.34,.26,.45s.29,.16,.5,.16,.4-.06,.58-.18c.18-.12,.31-.28,.4-.48,.07-.17,.1-.55,.1-1.13v-1.48c0-.24,.06-.42,.17-.54s.26-.18,.44-.18,.33,.06,.44,.18,.16,.3,.16,.54v3.52c0,.23-.05,.4-.16,.52-.11,.12-.24,.17-.41,.17s-.3-.06-.41-.18-.16-.29-.16-.51Zm-.89-6h.6c.15,0,.23,.02,.23,.07,0,.02-.08,.12-.25,.29-.17,.17-.33,.33-.5,.49-.17,.15-.29,.25-.35,.28-.17,.09-.35,.13-.54,.13-.13,0-.19-.04-.19-.11,0-.05,.04-.14,.12-.26l.2-.37c.12-.22,.22-.35,.3-.41,.09-.06,.22-.09,.39-.09Z"/><path class="cls-1" d="M119.67,62.04v.15c.21-.28,.45-.49,.7-.62,.25-.13,.55-.2,.87-.2s.61,.07,.86,.21c.25,.14,.44,.34,.56,.59,.08,.15,.13,.31,.16,.48,.02,.17,.04,.39,.04,.66v2.26c0,.24-.06,.43-.17,.55s-.26,.19-.43,.19-.33-.06-.44-.19c-.11-.13-.17-.31-.17-.55v-2.02c0-.4-.06-.71-.17-.92s-.33-.32-.67-.32c-.22,0-.41,.06-.59,.19-.18,.13-.31,.31-.39,.53-.06,.18-.09,.52-.09,1.01v1.52c0,.25-.06,.43-.17,.55-.11,.12-.26,.18-.44,.18s-.32-.06-.43-.19c-.11-.13-.17-.31-.17-.55v-3.51c0-.23,.05-.4,.15-.52,.1-.11,.24-.17,.41-.17,.11,0,.2,.03,.29,.08s.15,.13,.21,.23c.05,.1,.08,.22,.08,.37Z"/><path class="cls-1" d="M124.68,60.8c-.17,0-.31-.05-.43-.16-.12-.1-.18-.25-.18-.44,0-.17,.06-.31,.18-.42,.12-.11,.27-.17,.43-.17s.3,.05,.42,.15c.12,.1,.18,.25,.18,.44s-.06,.33-.18,.44c-.12,.11-.26,.16-.42,.16Zm.6,1.25v3.51c0,.24-.06,.43-.17,.55-.12,.12-.26,.19-.44,.19s-.32-.06-.43-.19c-.11-.13-.17-.31-.17-.55v-3.47c0-.24,.06-.42,.17-.54,.11-.12,.26-.18,.43-.18s.32,.06,.44,.18c.12,.12,.17,.29,.17,.51Z"/><path class="cls-1" d="M130.89,64.8c0,.15-.04,.31-.14,.49s-.23,.34-.41,.49c-.19,.16-.42,.28-.7,.38-.28,.1-.6,.14-.95,.14-.75,0-1.34-.22-1.76-.66-.42-.44-.63-1.02-.63-1.76,0-.5,.1-.94,.29-1.32,.19-.38,.47-.68,.84-.89,.36-.21,.8-.31,1.31-.31,.31,0,.6,.05,.87,.14,.26,.09,.48,.21,.67,.36s.32,.3,.42,.46c.1,.16,.14,.32,.14,.46s-.05,.27-.16,.37c-.11,.1-.24,.15-.39,.15-.1,0-.18-.03-.25-.08s-.14-.14-.22-.25c-.15-.23-.3-.39-.46-.51-.16-.11-.37-.17-.62-.17-.36,0-.65,.14-.87,.42-.22,.28-.33,.66-.33,1.15,0,.23,.03,.44,.08,.63,.06,.19,.14,.35,.24,.49,.11,.14,.24,.24,.39,.31,.15,.07,.32,.1,.5,.1,.24,0,.45-.06,.63-.17,.17-.11,.33-.28,.46-.52,.07-.14,.15-.24,.24-.32,.09-.08,.19-.12,.32-.12,.15,0,.27,.06,.37,.17,.1,.11,.15,.23,.15,.36Z"/><path class="cls-1" d="M135.02,65.62c-.29,.23-.58,.4-.85,.51-.27,.11-.58,.17-.92,.17-.31,0-.58-.06-.82-.18s-.42-.29-.54-.5-.19-.44-.19-.68c0-.33,.11-.62,.32-.85,.21-.23,.5-.39,.87-.47,.08-.02,.27-.06,.57-.12,.31-.06,.57-.12,.79-.17,.22-.05,.45-.11,.71-.19-.01-.32-.08-.56-.19-.7-.11-.15-.35-.23-.71-.23-.31,0-.54,.04-.7,.13-.16,.09-.29,.22-.4,.39-.11,.17-.19,.29-.24,.34-.05,.05-.14,.08-.3,.08-.14,0-.25-.04-.35-.13-.1-.09-.15-.2-.15-.34,0-.21,.08-.42,.23-.62,.15-.2,.39-.37,.71-.5,.32-.13,.72-.2,1.2-.2,.53,0,.95,.06,1.26,.19s.52,.33,.65,.6c.13,.27,.19,.63,.19,1.08,0,.28,0,.53,0,.73s0,.42,0,.66c0,.23,.04,.47,.11,.71s.11,.41,.11,.48c0,.12-.06,.24-.18,.34-.12,.1-.25,.15-.4,.15-.12,0-.25-.06-.37-.18-.12-.12-.25-.29-.39-.51Zm-.08-1.76c-.18,.06-.44,.13-.78,.21s-.57,.13-.7,.16-.26,.1-.37,.2c-.12,.1-.18,.24-.18,.42s.07,.34,.21,.47c.14,.13,.32,.19,.55,.19,.24,0,.46-.05,.67-.16,.2-.11,.35-.24,.45-.41,.11-.18,.16-.49,.16-.91v-.17Z"/><path class="cls-1" d="M141.27,64.72c0,.34-.08,.62-.24,.86-.16,.24-.4,.42-.72,.54s-.71,.18-1.16,.18-.81-.07-1.12-.2c-.31-.13-.54-.3-.69-.5-.15-.2-.22-.4-.22-.6,0-.13,.05-.25,.14-.34,.1-.09,.22-.14,.36-.14,.13,0,.23,.03,.29,.09s.13,.15,.2,.26c.12,.22,.27,.38,.45,.49s.41,.16,.71,.16c.24,0,.44-.05,.6-.16,.16-.11,.23-.23,.23-.37,0-.21-.08-.37-.24-.47-.16-.1-.43-.19-.8-.28-.42-.1-.76-.21-1.02-.33-.26-.11-.47-.26-.63-.45-.16-.19-.24-.42-.24-.69,0-.24,.07-.47,.22-.69s.36-.39,.64-.52c.28-.13,.62-.19,1.03-.19,.31,0,.6,.03,.85,.1,.25,.06,.46,.15,.63,.26,.17,.11,.3,.23,.38,.36,.09,.13,.13,.26,.13,.39,0,.14-.05,.25-.14,.34s-.23,.13-.4,.13c-.12,0-.23-.04-.32-.11s-.19-.18-.3-.32c-.09-.12-.2-.21-.32-.28-.13-.07-.29-.11-.51-.11s-.4,.05-.55,.14-.22,.21-.22,.35c0,.13,.05,.23,.16,.31,.11,.08,.25,.15,.43,.2s.43,.12,.75,.2c.38,.09,.68,.2,.92,.33,.24,.13,.42,.28,.54,.45,.12,.17,.18,.37,.18,.59Z"/><path class="cls-1" d="M142.78,66.31c-.19,0-.36-.06-.51-.18-.14-.12-.21-.29-.21-.5,0-.19,.07-.34,.21-.47s.3-.19,.49-.19c.14,0,.27,.04,.39,.12,.12,.08,.21,.19,.27,.34,.07,.15,.1,.34,.1,.55,0,.29-.06,.57-.19,.83-.13,.26-.28,.46-.46,.61-.18,.15-.34,.22-.49,.22-.09,0-.17-.03-.22-.09-.06-.06-.09-.13-.09-.21,0-.12,.06-.22,.18-.29,.35-.19,.52-.43,.52-.72Z"/><path class="cls-1" d="M150.41,65.61v-.12c-.16,.19-.32,.34-.48,.46-.16,.12-.33,.21-.52,.27-.19,.06-.39,.09-.61,.09-.29,0-.56-.06-.81-.18s-.46-.3-.64-.53c-.18-.23-.32-.5-.41-.81-.09-.31-.14-.64-.14-1,0-.76,.19-1.35,.56-1.77s.86-.64,1.46-.64c.35,0,.65,.06,.89,.18,.24,.12,.48,.3,.7,.55v-1.79c0-.25,.05-.44,.15-.56,.1-.13,.24-.19,.43-.19s.32,.06,.42,.18c.1,.12,.15,.29,.15,.52v5.36c0,.23-.05,.4-.16,.52-.11,.12-.24,.17-.41,.17s-.3-.06-.41-.18-.16-.29-.16-.51Zm-2.39-1.78c0,.33,.05,.61,.15,.84,.1,.23,.24,.41,.42,.52,.18,.12,.37,.18,.58,.18s.41-.05,.58-.17,.32-.28,.42-.51,.16-.52,.16-.86c0-.32-.05-.6-.16-.83s-.25-.41-.43-.53-.38-.18-.59-.18-.42,.06-.6,.19-.31,.31-.41,.54c-.1,.24-.14,.51-.14,.82Z"/><path class="cls-1" d="M156.17,64.13h-2.38c0,.28,.06,.52,.17,.73s.25,.37,.43,.48,.38,.16,.59,.16c.15,0,.28-.02,.4-.05,.12-.03,.24-.09,.35-.16,.11-.07,.22-.15,.31-.23,.1-.08,.22-.2,.37-.34,.06-.05,.15-.08,.27-.08,.12,0,.23,.03,.3,.1,.08,.07,.12,.16,.12,.29,0,.11-.04,.24-.13,.38s-.22,.29-.39,.42c-.17,.14-.39,.25-.65,.34s-.56,.13-.91,.13c-.78,0-1.39-.22-1.82-.67s-.65-1.05-.65-1.81c0-.36,.05-.69,.16-1s.26-.57,.47-.79c.21-.22,.46-.39,.76-.51,.3-.12,.63-.18,1-.18,.47,0,.88,.1,1.22,.3s.59,.46,.76,.78c.17,.32,.25,.64,.25,.97,0,.31-.09,.5-.26,.59s-.42,.14-.74,.14Zm-2.38-.69h2.2c-.03-.41-.14-.73-.34-.93-.19-.21-.45-.31-.77-.31s-.55,.1-.75,.31c-.19,.21-.31,.52-.35,.93Z"/><path class="cls-1" d="M162.1,64.72c0,.34-.08,.62-.24,.86-.16,.24-.4,.42-.72,.54s-.71,.18-1.16,.18-.81-.07-1.12-.2c-.31-.13-.54-.3-.69-.5-.15-.2-.22-.4-.22-.6,0-.13,.05-.25,.14-.34,.1-.09,.22-.14,.36-.14,.13,0,.23,.03,.29,.09s.13,.15,.2,.26c.12,.22,.27,.38,.45,.49s.41,.16,.71,.16c.24,0,.44-.05,.6-.16,.16-.11,.23-.23,.23-.37,0-.21-.08-.37-.24-.47-.16-.1-.43-.19-.8-.28-.42-.1-.76-.21-1.02-.33-.26-.11-.47-.26-.63-.45-.16-.19-.24-.42-.24-.69,0-.24,.07-.47,.22-.69s.36-.39,.64-.52c.28-.13,.62-.19,1.03-.19,.31,0,.6,.03,.85,.1,.25,.06,.46,.15,.63,.26,.17,.11,.3,.23,.38,.36,.09,.13,.13,.26,.13,.39,0,.14-.05,.25-.14,.34s-.23,.13-.4,.13c-.12,0-.23-.04-.32-.11s-.19-.18-.3-.32c-.09-.12-.2-.21-.32-.28-.13-.07-.29-.11-.51-.11s-.4,.05-.55,.14-.22,.21-.22,.35c0,.13,.05,.23,.16,.31,.11,.08,.25,.15,.43,.2s.43,.12,.75,.2c.38,.09,.68,.2,.92,.33,.24,.13,.42,.28,.54,.45,.12,.17,.18,.37,.18,.59Z"/><path class="cls-1" d="M163.2,61.47h.13v-.73c0-.2,0-.35,.02-.46,.01-.11,.04-.21,.09-.29,.05-.08,.12-.15,.2-.2s.19-.08,.3-.08c.15,0,.29,.06,.42,.17,.08,.08,.14,.17,.16,.28,.02,.11,.03,.27,.03,.47v.83h.44c.17,0,.3,.04,.39,.12,.09,.08,.14,.19,.14,.31,0,.16-.06,.28-.19,.34-.13,.06-.31,.1-.55,.1h-.23v2.23c0,.19,0,.34,.02,.44s.05,.18,.11,.25c.06,.06,.15,.1,.28,.1,.07,0,.17-.01,.29-.04,.12-.03,.22-.04,.28-.04,.1,0,.19,.04,.26,.12s.12,.18,.12,.29c0,.2-.11,.35-.32,.45-.21,.1-.52,.16-.92,.16-.38,0-.67-.06-.86-.19-.2-.13-.32-.3-.39-.53-.06-.23-.09-.53-.09-.9v-2.33h-.16c-.17,0-.31-.04-.4-.12s-.14-.19-.14-.32,.05-.23,.14-.31c.1-.08,.24-.12,.42-.12Z"/><path class="cls-1" d="M166.97,60.8c-.17,0-.31-.05-.43-.16-.12-.1-.18-.25-.18-.44,0-.17,.06-.31,.18-.42,.12-.11,.27-.17,.43-.17s.3,.05,.42,.15c.12,.1,.18,.25,.18,.44s-.06,.33-.18,.44c-.12,.11-.26,.16-.42,.16Zm.6,1.25v3.51c0,.24-.06,.43-.17,.55-.12,.12-.26,.19-.44,.19s-.32-.06-.43-.19c-.11-.13-.17-.31-.17-.55v-3.47c0-.24,.06-.42,.17-.54,.11-.12,.26-.18,.43-.18s.32,.06,.44,.18c.12,.12,.17,.29,.17,.51Z"/><path class="cls-1" d="M169.93,62.04v.15c.21-.28,.45-.49,.7-.62,.25-.13,.55-.2,.87-.2s.61,.07,.86,.21c.25,.14,.44,.34,.56,.59,.08,.15,.13,.31,.16,.48,.02,.17,.04,.39,.04,.66v2.26c0,.24-.06,.43-.17,.55s-.26,.19-.43,.19-.33-.06-.44-.19c-.11-.13-.17-.31-.17-.55v-2.02c0-.4-.06-.71-.17-.92s-.33-.32-.67-.32c-.22,0-.41,.06-.59,.19-.18,.13-.31,.31-.39,.53-.06,.18-.09,.52-.09,1.01v1.52c0,.25-.06,.43-.17,.55-.11,.12-.26,.18-.44,.18s-.32-.06-.43-.19c-.11-.13-.17-.31-.17-.55v-3.51c0-.23,.05-.4,.15-.52,.1-.11,.24-.17,.41-.17,.11,0,.2,.03,.29,.08s.15,.13,.21,.23c.05,.1,.08,.22,.08,.37Z"/><path class="cls-1" d="M178.88,63.83c0,.36-.06,.7-.17,1-.11,.31-.28,.57-.49,.79s-.47,.39-.77,.51c-.3,.12-.63,.18-1,.18s-.7-.06-.99-.18c-.29-.12-.55-.29-.76-.51-.22-.22-.38-.48-.49-.78-.11-.3-.17-.63-.17-1s.06-.7,.17-1.01c.11-.31,.27-.57,.48-.78s.47-.38,.77-.5c.3-.12,.63-.18,.99-.18s.7,.06,1,.18c.3,.12,.56,.29,.77,.51,.21,.22,.38,.48,.49,.78,.11,.3,.17,.64,.17,1Zm-1.22,0c0-.5-.11-.88-.33-1.16-.22-.28-.51-.41-.88-.41-.24,0-.45,.06-.63,.18s-.32,.3-.42,.55c-.1,.24-.15,.52-.15,.84s.05,.59,.14,.83c.1,.24,.23,.42,.41,.54s.39,.19,.63,.19c.37,0,.66-.14,.88-.42,.22-.28,.33-.66,.33-1.15Z"/><path class="cls-1" d="M183.74,64.72c0,.34-.08,.62-.24,.86-.16,.24-.4,.42-.72,.54s-.71,.18-1.16,.18-.81-.07-1.12-.2c-.31-.13-.54-.3-.69-.5-.15-.2-.22-.4-.22-.6,0-.13,.05-.25,.14-.34,.1-.09,.22-.14,.36-.14,.13,0,.23,.03,.29,.09s.13,.15,.2,.26c.12,.22,.27,.38,.45,.49s.41,.16,.71,.16c.24,0,.44-.05,.6-.16,.16-.11,.23-.23,.23-.37,0-.21-.08-.37-.24-.47-.16-.1-.43-.19-.8-.28-.42-.1-.76-.21-1.02-.33-.26-.11-.47-.26-.63-.45-.16-.19-.24-.42-.24-.69,0-.24,.07-.47,.22-.69s.36-.39,.64-.52c.28-.13,.62-.19,1.03-.19,.31,0,.6,.03,.85,.1,.25,.06,.46,.15,.63,.26,.17,.11,.3,.23,.38,.36,.09,.13,.13,.26,.13,.39,0,.14-.05,.25-.14,.34s-.23,.13-.4,.13c-.12,0-.23-.04-.32-.11s-.19-.18-.3-.32c-.09-.12-.2-.21-.32-.28-.13-.07-.29-.11-.51-.11s-.4,.05-.55,.14-.22,.21-.22,.35c0,.13,.05,.23,.16,.31,.11,.08,.25,.15,.43,.2s.43,.12,.75,.2c.38,.09,.68,.2,.92,.33,.24,.13,.42,.28,.54,.45,.12,.17,.18,.37,.18,.59Z"/><path class="cls-1" d="M190.2,65.62v-.16c-.15,.18-.3,.34-.46,.46s-.34,.22-.52,.28c-.19,.06-.41,.09-.65,.09-.29,0-.56-.06-.79-.18-.23-.12-.41-.29-.54-.5-.15-.26-.23-.63-.23-1.11v-2.41c0-.24,.05-.42,.16-.54,.11-.12,.25-.18,.44-.18s.33,.06,.44,.18,.17,.3,.17,.54v1.94c0,.28,.02,.52,.07,.71,.05,.19,.13,.34,.26,.45s.29,.16,.5,.16,.4-.06,.58-.18c.18-.12,.31-.28,.4-.48,.07-.17,.1-.55,.1-1.13v-1.48c0-.24,.06-.42,.17-.54s.26-.18,.44-.18,.33,.06,.44,.18,.16,.3,.16,.54v3.52c0,.23-.05,.4-.16,.52-.11,.12-.24,.17-.41,.17s-.3-.06-.41-.18-.16-.29-.16-.51Zm-.89-6h.6c.15,0,.23,.02,.23,.07,0,.02-.08,.12-.25,.29-.17,.17-.33,.33-.5,.49-.17,.15-.29,.25-.35,.28-.17,.09-.35,.13-.54,.13-.13,0-.19-.04-.19-.11,0-.05,.04-.14,.12-.26l.2-.37c.12-.22,.22-.35,.3-.41,.09-.06,.22-.09,.39-.09Z"/><path class="cls-1" d="M193.65,62.04v.15c.21-.28,.45-.49,.7-.62,.25-.13,.55-.2,.87-.2s.61,.07,.86,.21c.25,.14,.44,.34,.56,.59,.08,.15,.13,.31,.16,.48,.02,.17,.04,.39,.04,.66v2.26c0,.24-.06,.43-.17,.55s-.26,.19-.43,.19-.33-.06-.44-.19c-.11-.13-.17-.31-.17-.55v-2.02c0-.4-.06-.71-.17-.92s-.33-.32-.67-.32c-.22,0-.41,.06-.59,.19-.18,.13-.31,.31-.39,.53-.06,.18-.09,.52-.09,1.01v1.52c0,.25-.06,.43-.17,.55-.11,.12-.26,.18-.44,.18s-.32-.06-.43-.19c-.11-.13-.17-.31-.17-.55v-3.51c0-.23,.05-.4,.15-.52,.1-.11,.24-.17,.41-.17,.11,0,.2,.03,.29,.08s.15,.13,.21,.23c.05,.1,.08,.22,.08,.37Z"/><path class="cls-1" d="M198.67,60.8c-.17,0-.31-.05-.43-.16-.12-.1-.18-.25-.18-.44,0-.17,.06-.31,.18-.42,.12-.11,.27-.17,.43-.17s.3,.05,.42,.15c.12,.1,.18,.25,.18,.44s-.06,.33-.18,.44c-.12,.11-.26,.16-.42,.16Zm.6,1.25v3.51c0,.24-.06,.43-.17,.55-.12,.12-.26,.19-.44,.19s-.32-.06-.43-.19c-.11-.13-.17-.31-.17-.55v-3.47c0-.24,.06-.42,.17-.54,.11-.12,.26-.18,.43-.18s.32,.06,.44,.18c.12,.12,.17,.29,.17,.51Z"/><path class="cls-1" d="M204.88,64.8c0,.15-.04,.31-.14,.49s-.23,.34-.41,.49c-.19,.16-.42,.28-.7,.38-.28,.1-.6,.14-.95,.14-.75,0-1.34-.22-1.76-.66-.42-.44-.63-1.02-.63-1.76,0-.5,.1-.94,.29-1.32,.19-.38,.47-.68,.84-.89,.36-.21,.8-.31,1.31-.31,.31,0,.6,.05,.87,.14,.26,.09,.48,.21,.67,.36s.32,.3,.42,.46c.1,.16,.14,.32,.14,.46s-.05,.27-.16,.37c-.11,.1-.24,.15-.39,.15-.1,0-.18-.03-.25-.08s-.14-.14-.22-.25c-.15-.23-.3-.39-.46-.51-.16-.11-.37-.17-.62-.17-.36,0-.65,.14-.87,.42-.22,.28-.33,.66-.33,1.15,0,.23,.03,.44,.08,.63,.06,.19,.14,.35,.24,.49,.11,.14,.24,.24,.39,.31,.15,.07,.32,.1,.5,.1,.24,0,.45-.06,.63-.17,.17-.11,.33-.28,.46-.52,.07-.14,.15-.24,.24-.32,.09-.08,.19-.12,.32-.12,.15,0,.27,.06,.37,.17,.1,.11,.15,.23,.15,.36Z"/><path class="cls-1" d="M210.48,63.83c0,.36-.06,.7-.17,1-.11,.31-.28,.57-.49,.79s-.47,.39-.77,.51c-.3,.12-.63,.18-1,.18s-.7-.06-.99-.18c-.29-.12-.55-.29-.76-.51-.22-.22-.38-.48-.49-.78-.11-.3-.17-.63-.17-1s.06-.7,.17-1.01c.11-.31,.27-.57,.48-.78s.47-.38,.77-.5c.3-.12,.63-.18,.99-.18s.7,.06,1,.18c.3,.12,.56,.29,.77,.51,.21,.22,.38,.48,.49,.78,.11,.3,.17,.64,.17,1Zm-1.22,0c0-.5-.11-.88-.33-1.16-.22-.28-.51-.41-.88-.41-.24,0-.45,.06-.63,.18s-.32,.3-.42,.55c-.1,.24-.15,.52-.15,.84s.05,.59,.14,.83c.1,.24,.23,.42,.41,.54s.39,.19,.63,.19c.37,0,.66-.14,.88-.42,.22-.28,.33-.66,.33-1.15Z"/><path class="cls-1" d="M215.35,64.72c0,.34-.08,.62-.24,.86-.16,.24-.4,.42-.72,.54s-.71,.18-1.16,.18-.81-.07-1.12-.2c-.31-.13-.54-.3-.69-.5-.15-.2-.22-.4-.22-.6,0-.13,.05-.25,.14-.34,.1-.09,.22-.14,.36-.14,.13,0,.23,.03,.29,.09s.13,.15,.2,.26c.12,.22,.27,.38,.45,.49s.41,.16,.71,.16c.24,0,.44-.05,.6-.16,.16-.11,.23-.23,.23-.37,0-.21-.08-.37-.24-.47-.16-.1-.43-.19-.8-.28-.42-.1-.76-.21-1.02-.33-.26-.11-.47-.26-.63-.45-.16-.19-.24-.42-.24-.69,0-.24,.07-.47,.22-.69s.36-.39,.64-.52c.28-.13,.62-.19,1.03-.19,.31,0,.6,.03,.85,.1,.25,.06,.46,.15,.63,.26,.17,.11,.3,.23,.38,.36,.09,.13,.13,.26,.13,.39,0,.14-.05,.25-.14,.34s-.23,.13-.4,.13c-.12,0-.23-.04-.32-.11s-.19-.18-.3-.32c-.09-.12-.2-.21-.32-.28-.13-.07-.29-.11-.51-.11s-.4,.05-.55,.14-.22,.21-.22,.35c0,.13,.05,.23,.16,.31,.11,.08,.25,.15,.43,.2s.43,.12,.75,.2c.38,.09,.68,.2,.92,.33,.24,.13,.42,.28,.54,.45,.12,.17,.18,.37,.18,.59Z"/></g><path class="cls-1" d="M198.46,25.61c0,.39-.14,.74-.37,1.02h0s-.06,.06-.09,.09l-1.91,2.05h-.79v-3.17c0-.87,.71-1.58,1.58-1.58s1.58,.71,1.58,1.58Z"/><path class="cls-1" d="M198.09,26.63l-.1,.09s.06-.06,.09-.09h0Z"/></g><rect class="cls-2" width="232.39" height="94.96" transform="translate(232.39 94.96) rotate(180)"/></g></g></svg>