<?xml version="1.0" encoding="UTF-8"?><svg id="Capa_2" xmlns="http://www.w3.org/2000/svg" viewBox="0 0 232.39 94.96"><defs><style>.cls-1,.cls-2{fill:#fff;}.cls-3{fill:none;}.cls-2{opacity:.28;}</style></defs><g id="Capa_4"><g><rect class="cls-3" width="232.39" height="94.96" transform="translate(232.39 94.96) rotate(180)"/><g><path class="cls-2" d="M91.75,2.48c-5.42,0-10.58,1.15-15.24,3.2,3.19-.88,6.55-1.35,10.02-1.35,20.85,0,37.74,16.9,37.74,37.74,0,15.42-9.25,28.68-22.51,34.54,15.98-4.39,27.73-19.02,27.73-36.4,0-20.85-16.9-37.74-37.74-37.74Z"/><path class="cls-1" d="M106.6,38.62h-1.5l-.6-1.55h-2.74l-.57,1.55h-1.47l2.67-6.84h1.46l2.74,6.84Zm-2.54-2.71l-.94-2.54-.92,2.54h1.87Z"/><path class="cls-1" d="M106.98,36.39l1.34-.13c.08,.45,.25,.78,.49,.99,.25,.21,.58,.32,1,.32,.45,0,.78-.09,1.01-.28s.34-.41,.34-.66c0-.16-.05-.3-.14-.41s-.26-.21-.5-.3c-.16-.06-.53-.16-1.11-.3-.74-.18-1.26-.41-1.56-.68-.42-.38-.63-.84-.63-1.38,0-.35,.1-.67,.3-.98,.2-.3,.48-.53,.85-.69,.37-.16,.82-.24,1.35-.24,.86,0,1.51,.19,1.94,.57s.66,.88,.68,1.51l-1.38,.06c-.06-.35-.19-.6-.38-.76-.19-.15-.49-.23-.88-.23s-.72,.08-.94,.25c-.15,.11-.22,.25-.22,.43,0,.16,.07,.3,.21,.42,.17,.15,.6,.3,1.27,.46s1.17,.32,1.49,.49c.32,.17,.57,.4,.76,.7,.18,.29,.27,.66,.27,1.09,0,.39-.11,.76-.33,1.1-.22,.34-.53,.6-.92,.76-.4,.17-.89,.25-1.49,.25-.87,0-1.53-.2-1.99-.6s-.74-.98-.83-1.75Z"/><path class="cls-1" d="M113.43,35.24c0-.7,.1-1.28,.31-1.76,.16-.35,.37-.66,.64-.94,.27-.28,.56-.48,.88-.62,.43-.18,.92-.27,1.48-.27,1.01,0,1.82,.31,2.42,.94,.61,.63,.91,1.5,.91,2.61s-.3,1.97-.9,2.59c-.6,.62-1.4,.94-2.41,.94s-1.83-.31-2.43-.93c-.6-.62-.9-1.48-.9-2.57Zm1.42-.05c0,.78,.18,1.36,.54,1.76,.36,.4,.81,.6,1.36,.6s1-.2,1.36-.6c.35-.4,.53-.99,.53-1.79s-.17-1.37-.52-1.76c-.34-.39-.8-.58-1.37-.58s-1.03,.2-1.38,.59c-.35,.39-.52,.98-.52,1.77Z"/><path class="cls-1" d="M125.53,36.1l1.34,.43c-.21,.75-.55,1.3-1.02,1.66-.48,.36-1.08,.54-1.82,.54-.91,0-1.66-.31-2.24-.93-.59-.62-.88-1.47-.88-2.55,0-1.14,.29-2.02,.88-2.65,.59-.63,1.36-.95,2.32-.95,.84,0,1.52,.25,2.04,.74,.31,.29,.54,.71,.7,1.26l-1.37,.33c-.08-.35-.25-.64-.51-.84-.26-.21-.57-.31-.94-.31-.51,0-.92,.18-1.24,.55-.32,.36-.47,.95-.47,1.77,0,.87,.16,1.48,.47,1.85s.72,.55,1.21,.55c.37,0,.68-.12,.95-.35,.26-.23,.45-.6,.57-1.1Z"/><path class="cls-1" d="M128.01,38.62v-6.84h1.38v6.84h-1.38Z"/><path class="cls-1" d="M136.88,38.62h-1.5l-.6-1.55h-2.74l-.57,1.55h-1.47l2.67-6.84h1.46l2.74,6.84Zm-2.54-2.71l-.94-2.54-.92,2.54h1.87Z"/><path class="cls-1" d="M141.99,36.1l1.34,.43c-.21,.75-.55,1.3-1.02,1.66-.48,.36-1.08,.54-1.82,.54-.91,0-1.66-.31-2.24-.93-.59-.62-.88-1.47-.88-2.55,0-1.14,.29-2.02,.88-2.65,.59-.63,1.36-.95,2.32-.95,.84,0,1.52,.25,2.04,.74,.31,.29,.54,.71,.7,1.26l-1.37,.33c-.08-.35-.25-.64-.51-.84-.26-.21-.57-.31-.94-.31-.51,0-.92,.18-1.24,.55-.32,.36-.47,.95-.47,1.77,0,.87,.16,1.48,.47,1.85s.72,.55,1.21,.55c.37,0,.68-.12,.95-.35,.26-.23,.45-.6,.57-1.1Z"/><path class="cls-1" d="M144.48,38.62v-6.84h1.38v6.84h-1.38Z"/><path class="cls-1" d="M146.9,35.24c0-.7,.1-1.28,.31-1.76,.16-.35,.37-.66,.64-.94,.27-.28,.56-.48,.88-.62,.43-.18,.92-.27,1.48-.27,1.01,0,1.82,.31,2.42,.94,.61,.63,.91,1.5,.91,2.61s-.3,1.97-.9,2.59c-.6,.62-1.4,.94-2.41,.94s-1.83-.31-2.43-.93-.9-1.48-.9-2.57Zm1.42-.05c0,.78,.18,1.36,.54,1.76,.36,.4,.81,.6,1.36,.6s1-.2,1.36-.6c.35-.4,.53-.99,.53-1.79s-.17-1.37-.52-1.76c-.34-.39-.8-.58-1.37-.58s-1.03,.2-1.38,.59c-.35,.39-.52,.98-.52,1.77Zm1.05-3.81l.64-1.4h1.47l-1.28,1.4h-.83Z"/><path class="cls-1" d="M154.63,38.62v-6.84h1.34l2.8,4.57v-4.57h1.28v6.84h-1.39l-2.76-4.46v4.46h-1.28Z"/><path class="cls-1" d="M85.38,48.35v-8.49h1.71v8.49h-1.71Z"/><path class="cls-1" d="M88.73,39.86h3.39c.67,0,1.17,.03,1.5,.08,.33,.06,.63,.17,.89,.35,.26,.18,.48,.41,.65,.71,.17,.3,.26,.63,.26,.99,0,.4-.11,.76-.32,1.09-.21,.33-.5,.58-.87,.75,.52,.15,.91,.41,1.19,.77,.28,.36,.42,.79,.42,1.28,0,.39-.09,.76-.27,1.13-.18,.36-.42,.66-.74,.87-.31,.22-.69,.35-1.15,.4-.29,.03-.97,.05-2.07,.06h-2.89v-8.49Zm1.71,1.41v1.96h1.12c.67,0,1.08,0,1.25-.03,.29-.03,.52-.14,.69-.3,.17-.17,.25-.39,.25-.66s-.07-.48-.22-.64c-.14-.16-.36-.26-.65-.3-.17-.02-.66-.03-1.46-.03h-.98Zm0,3.38v2.27h1.59c.62,0,1.01-.02,1.18-.05,.25-.05,.46-.16,.62-.34s.24-.42,.24-.72c0-.25-.06-.47-.19-.65-.12-.18-.3-.31-.54-.39s-.74-.12-1.52-.12h-1.38Z"/><path class="cls-1" d="M97.29,48.35v-8.49h6.29v1.44h-4.58v1.88h4.26v1.43h-4.26v2.31h4.74v1.43h-6.46Z"/><path class="cls-1" d="M105.21,48.35v-8.49h3.61c.91,0,1.57,.08,1.98,.23,.41,.15,.74,.42,.99,.81,.25,.39,.37,.84,.37,1.34,0,.64-.19,1.16-.56,1.58-.37,.42-.93,.68-1.68,.78,.37,.22,.68,.45,.92,.71,.24,.26,.57,.72,.98,1.38l1.04,1.66h-2.05l-1.24-1.85c-.44-.66-.74-1.08-.9-1.25-.16-.17-.33-.29-.52-.35-.18-.06-.47-.1-.86-.1h-.35v3.54h-1.71Zm1.71-4.9h1.27c.82,0,1.34-.03,1.54-.1s.36-.19,.48-.36c.12-.17,.17-.38,.17-.64,0-.29-.08-.52-.23-.69-.15-.18-.37-.29-.65-.33-.14-.02-.56-.03-1.25-.03h-1.34v2.15Z"/><path class="cls-1" d="M113.42,44.15c0-.86,.13-1.59,.39-2.18,.19-.43,.46-.82,.79-1.16,.33-.34,.7-.6,1.1-.76,.53-.22,1.14-.34,1.83-.34,1.25,0,2.25,.39,3,1.16,.75,.78,1.13,1.86,1.13,3.24s-.37,2.44-1.12,3.22c-.75,.77-1.74,1.16-2.99,1.16s-2.27-.39-3.01-1.16-1.12-1.83-1.12-3.18Zm1.77-.06c0,.96,.22,1.69,.67,2.19,.44,.5,1.01,.74,1.69,.74s1.24-.25,1.68-.74c.44-.49,.66-1.23,.66-2.22s-.21-1.7-.64-2.18c-.43-.48-.99-.72-1.7-.72s-1.28,.24-1.71,.73c-.43,.48-.65,1.22-.65,2.19Z"/><path class="cls-1" d="M130.65,48.35h-1.86l-.74-1.93h-3.39l-.7,1.93h-1.82l3.31-8.49h1.81l3.4,8.49Zm-3.16-3.36l-1.17-3.15-1.15,3.15h2.32Z"/><path class="cls-1" d="M131.53,48.35v-8.49h2.57l1.54,5.79,1.52-5.79h2.57v8.49h-1.59v-6.68l-1.69,6.68h-1.65l-1.68-6.68v6.68h-1.59Z"/><path class="cls-1" d="M141.43,48.35v-8.49h6.29v1.44h-4.58v1.88h4.26v1.43h-4.26v2.31h4.74v1.43h-6.46Z"/><path class="cls-1" d="M149.35,48.35v-8.49h3.61c.91,0,1.57,.08,1.98,.23,.41,.15,.74,.42,.99,.81s.37,.84,.37,1.34c0,.64-.19,1.16-.56,1.58-.37,.42-.93,.68-1.68,.78,.37,.22,.68,.45,.92,.71,.24,.26,.57,.72,.98,1.38l1.04,1.66h-2.05l-1.24-1.85c-.44-.66-.74-1.08-.9-1.25-.16-.17-.33-.29-.52-.35-.18-.06-.47-.1-.86-.1h-.35v3.54h-1.71Zm1.71-4.9h1.27c.82,0,1.34-.03,1.54-.1s.36-.19,.48-.36c.12-.17,.17-.38,.17-.64,0-.29-.08-.52-.23-.69-.15-.18-.37-.29-.65-.33-.14-.02-.56-.03-1.25-.03h-1.34v2.15Z"/><path class="cls-1" d="M157.86,48.35v-8.49h1.71v8.49h-1.71Z"/><path class="cls-1" d="M166.64,45.22l1.66,.53c-.25,.93-.68,1.61-1.27,2.06-.59,.45-1.34,.67-2.26,.67-1.13,0-2.05-.39-2.78-1.16-.73-.77-1.09-1.82-1.09-3.16,0-1.41,.36-2.51,1.09-3.29,.73-.78,1.69-1.17,2.88-1.17,1.04,0,1.88,.31,2.53,.92,.39,.36,.68,.88,.87,1.56l-1.7,.41c-.1-.44-.31-.79-.63-1.04-.32-.25-.71-.38-1.16-.38-.63,0-1.14,.23-1.53,.68-.39,.45-.59,1.18-.59,2.19,0,1.07,.19,1.84,.58,2.29s.89,.68,1.51,.68c.46,0,.85-.14,1.18-.43,.33-.29,.56-.75,.71-1.37Z"/><path class="cls-1" d="M177.42,48.35h-1.86l-.74-1.93h-3.39l-.7,1.93h-1.82l3.31-8.49h1.81l3.4,8.49Zm-3.16-3.36l-1.17-3.15-1.15,3.15h2.32Z"/><path class="cls-1" d="M178.35,48.35v-8.49h1.67l3.47,5.67v-5.67h1.59v8.49h-1.72l-3.42-5.54v5.54h-1.59Z"/><path class="cls-1" d="M194.55,48.35h-1.86l-.74-1.93h-3.39l-.7,1.93h-1.82l3.31-8.49h1.81l3.4,8.49Zm-3.16-3.36l-1.17-3.15-1.15,3.15h2.32Z"/><path class="cls-1" d="M84.87,51.3h1.44c.32,0,.57,.02,.74,.07,.23,.07,.42,.19,.59,.36,.16,.17,.29,.38,.37,.63,.09,.25,.13,.56,.13,.92,0,.32-.04,.6-.12,.83-.1,.28-.24,.51-.42,.69-.14,.13-.32,.24-.55,.31-.17,.06-.41,.08-.7,.08h-1.48v-3.9Zm.79,.66v2.59h.59c.22,0,.38-.01,.48-.04,.13-.03,.23-.09,.32-.16,.08-.08,.15-.2,.21-.38s.08-.41,.08-.72-.03-.53-.08-.7c-.05-.16-.13-.29-.22-.38-.1-.09-.22-.15-.36-.18-.11-.02-.33-.04-.65-.04h-.35Z"/><path class="cls-1" d="M88.81,55.21v-3.9h2.89v.66h-2.11v.87h1.96v.66h-1.96v1.06h2.18v.66h-2.97Z"/><path class="cls-1" d="M93.48,50.81h2.88c.57,0,1,.02,1.28,.07,.28,.05,.53,.15,.75,.3,.22,.15,.41,.35,.55,.6,.15,.25,.22,.53,.22,.84,0,.34-.09,.65-.27,.93-.18,.28-.43,.49-.74,.64,.44,.13,.78,.35,1.01,.65,.24,.31,.35,.67,.35,1.09,0,.33-.08,.65-.23,.96-.15,.31-.36,.56-.63,.74-.26,.19-.59,.3-.98,.34-.24,.03-.83,.04-1.76,.05h-2.46v-7.22Zm1.46,1.2v1.67h.95c.57,0,.92,0,1.06-.02,.25-.03,.45-.12,.59-.26,.14-.14,.21-.33,.21-.56s-.06-.4-.18-.54c-.12-.14-.31-.22-.55-.25-.14-.02-.56-.02-1.25-.02h-.84Zm0,2.87v1.93h1.35c.53,0,.86-.01,1-.04,.22-.04,.39-.14,.53-.29s.2-.36,.2-.61c0-.22-.05-.4-.16-.55-.1-.15-.26-.26-.46-.33s-.63-.1-1.29-.1h-1.18Z"/><path class="cls-1" d="M107.27,58.03h-1.59l-.63-1.64h-2.88l-.6,1.64h-1.55l2.81-7.22h1.54l2.89,7.22Zm-2.68-2.86l-.99-2.68-.97,2.68h1.97Z"/><path class="cls-1" d="M108.05,58.03v-7.22h1.42l2.95,4.82v-4.82h1.35v7.22h-1.46l-2.91-4.71v4.71h-1.35Z"/><path class="cls-1" d="M119.94,55.38l1.41,.45c-.22,.79-.58,1.37-1.08,1.75-.5,.38-1.14,.57-1.92,.57-.96,0-1.75-.33-2.36-.98-.62-.65-.93-1.55-.93-2.69,0-1.2,.31-2.13,.93-2.8,.62-.66,1.44-1,2.45-1,.88,0,1.6,.26,2.15,.78,.33,.31,.57,.75,.74,1.33l-1.44,.34c-.09-.37-.26-.67-.53-.89-.27-.22-.6-.32-.99-.32-.53,0-.97,.19-1.3,.58-.33,.38-.5,1.01-.5,1.87,0,.91,.16,1.56,.49,1.95s.75,.58,1.28,.58c.39,0,.72-.12,1-.37,.28-.25,.48-.63,.6-1.16Z"/><path class="cls-1" d="M122.31,54.47c0-.74,.11-1.35,.33-1.85,.16-.37,.39-.7,.67-.99,.28-.29,.59-.51,.93-.65,.45-.19,.97-.29,1.56-.29,1.06,0,1.91,.33,2.55,.99,.64,.66,.96,1.58,.96,2.75s-.32,2.08-.95,2.73c-.63,.66-1.48,.99-2.54,.99s-1.93-.33-2.56-.98c-.63-.65-.95-1.56-.95-2.71Zm1.5-.05c0,.82,.19,1.44,.57,1.86,.38,.42,.86,.63,1.44,.63s1.06-.21,1.43-.63c.37-.42,.56-1.05,.56-1.88s-.18-1.44-.54-1.85c-.36-.41-.84-.61-1.44-.61s-1.08,.21-1.45,.62c-.37,.41-.55,1.03-.55,1.86Z"/><path class="cls-1" d="M130.07,55.68l1.42-.14c.09,.48,.26,.83,.52,1.05,.26,.22,.61,.33,1.06,.33,.47,0,.82-.1,1.06-.3s.36-.43,.36-.7c0-.17-.05-.32-.15-.44s-.28-.22-.52-.31c-.17-.06-.56-.16-1.17-.32-.78-.19-1.33-.43-1.64-.71-.44-.4-.66-.88-.66-1.45,0-.37,.1-.71,.31-1.03,.21-.32,.51-.56,.9-.73,.39-.17,.87-.25,1.42-.25,.91,0,1.59,.2,2.05,.6s.7,.93,.72,1.59l-1.46,.06c-.06-.37-.2-.64-.4-.8-.21-.16-.51-.24-.92-.24s-.75,.09-.99,.26c-.15,.11-.23,.26-.23,.45,0,.17,.07,.32,.22,.44,.18,.15,.63,.32,1.34,.48s1.23,.34,1.57,.52c.34,.18,.61,.42,.8,.73,.19,.31,.29,.69,.29,1.15,0,.41-.11,.8-.34,1.16-.23,.36-.55,.63-.97,.8-.42,.18-.94,.26-1.57,.26-.91,0-1.61-.21-2.1-.63s-.78-1.04-.88-1.84Z"/><path class="cls-1" d="M139.96,50.81h2.66c.6,0,1.06,.05,1.37,.14,.42,.12,.79,.35,1.09,.66,.3,.32,.53,.71,.69,1.17,.16,.46,.24,1.03,.24,1.71,0,.59-.07,1.11-.22,1.54-.18,.53-.44,.95-.77,1.28-.25,.25-.59,.44-1.02,.58-.32,.1-.75,.15-1.29,.15h-2.74v-7.22Zm1.46,1.22v4.78h1.09c.41,0,.7-.02,.88-.07,.24-.06,.43-.16,.59-.3,.16-.14,.28-.37,.38-.7s.15-.76,.15-1.32-.05-.99-.15-1.28c-.1-.3-.24-.53-.41-.7-.18-.17-.4-.28-.67-.34-.2-.05-.6-.07-1.2-.07h-.65Z"/><path class="cls-1" d="M147.25,58.03v-7.22h5.35v1.22h-3.89v1.6h3.62v1.22h-3.62v1.96h4.03v1.22h-5.49Z"/><path class="cls-1" d="M158.4,58.03v-6h-2.14v-1.22h5.74v1.22h-2.14v6h-1.46Z"/><path class="cls-1" d="M162.89,58.03v-7.22h1.46v7.22h-1.46Z"/><path class="cls-1" d="M165.73,58.03v-7.22h5.35v1.22h-3.89v1.6h3.62v1.22h-3.62v1.96h4.03v1.22h-5.49Z"/><path class="cls-1" d="M172.44,58.03v-7.22h2.18l1.31,4.92,1.29-4.92h2.19v7.22h-1.35v-5.68l-1.43,5.68h-1.4l-1.43-5.68v5.68h-1.35Z"/><path class="cls-1" d="M180.86,58.03v-7.22h2.34c.89,0,1.46,.04,1.73,.11,.41,.11,.76,.34,1.04,.71,.28,.36,.42,.83,.42,1.41,0,.44-.08,.82-.24,1.12-.16,.3-.37,.54-.61,.71-.25,.17-.5,.29-.76,.34-.35,.07-.85,.1-1.51,.1h-.95v2.72h-1.46Zm1.46-6v2.05h.8c.57,0,.96-.04,1.15-.11s.35-.19,.46-.35c.11-.16,.16-.35,.16-.56,0-.26-.08-.48-.23-.65-.15-.17-.35-.28-.59-.32-.17-.03-.52-.05-1.05-.05h-.7Z"/><path class="cls-1" d="M187.29,54.47c0-.74,.11-1.35,.33-1.85,.16-.37,.39-.7,.67-.99,.28-.29,.59-.51,.93-.65,.45-.19,.97-.29,1.56-.29,1.06,0,1.91,.33,2.55,.99,.64,.66,.96,1.58,.96,2.75s-.32,2.08-.95,2.73c-.63,.66-1.48,.99-2.54,.99s-1.93-.33-2.56-.98c-.63-.65-.95-1.56-.95-2.71Zm1.5-.05c0,.82,.19,1.44,.57,1.86,.38,.42,.86,.63,1.44,.63s1.06-.21,1.43-.63c.37-.42,.56-1.05,.56-1.88s-.18-1.44-.54-1.85c-.36-.41-.84-.61-1.44-.61s-1.08,.21-1.45,.62c-.37,.41-.55,1.03-.55,1.86Z"/><g><polygon class="cls-1" points="108.77 5.71 98.64 4.34 93.44 5.35 93.73 7.45 94.88 8.89 94.81 11.57 90.04 19.23 91.56 19.09 91.92 23.86 98.5 23.43 98.59 23.88 106.31 10.58 107.23 11.13 99.17 26.7 99.37 27.69 101.17 27.98 102.04 25.96 109.92 25.96 113.83 23.35 117.08 13.59 123.37 9.91 123.37 8.39 108.77 5.71"/><polygon class="cls-1" points="90.72 37.45 92.91 38.79 99.17 26.7 98.59 23.88 90.72 37.45"/></g><g><polygon class="cls-1" points="71.75 43.67 77.67 43.02 83.16 33.81 60.69 31.17 60.92 29.55 84.48 31.59 86.93 27.48 81.36 21.04 79.99 24.29 75.65 21.62 74.35 27.77 67.84 24.29 70.66 19.52 62.42 16.27 61.26 17.57 50.34 10.63 43.55 13.67 44.34 18.29 37.83 18.37 37.83 19.23 52.87 20.97 55.4 30.66 56.78 41.58 64.51 51.84 72.47 54.16 77.1 57.05 79.27 59.29 79.34 61.61 77.96 65.51 83.17 71.01 83.03 86.62 86.13 92.48 88.23 92.19 86.06 87.27 92.71 75.85 97.78 71.73 97.78 62.69 91.63 62.33 85.99 56.11 79.84 57.99 77.17 55.53 75.51 54.52 75.36 53.22 72.11 53.15 68.71 50.69 69.29 45.48 71.75 43.67"/><polygon class="cls-1" points="100.04 35.8 100.27 32.96 84.48 31.59 83.16 33.81 100.04 35.8"/></g><circle class="cls-1" cx="94.45" cy="33.77" r="1.37"/></g></g></g></svg>