<?xml version="1.0" encoding="UTF-8"?><svg id="Capa_2" xmlns="http://www.w3.org/2000/svg" viewBox="0 0 232.39 94.96"><defs><style>.cls-1,.cls-2{fill:#fff;}.cls-2{fill-rule:evenodd;}.cls-3{fill:none;}</style></defs><g id="Capa_4"><g><rect class="cls-3" width="232.39" height="94.96" transform="translate(232.39 94.96) rotate(180)"/><g><g><path class="cls-1" d="M158.04,33.74c-1.08-1.3-2.33-2.02-3.86-2.11h-.36c-1.93,0-3.5,.76-4.71,2.33-1.17,1.62-1.8,3.68-1.8,6.24,0,2.33,.54,4.18,1.53,5.52,1.03,1.35,2.38,2.02,4.13,2.02,.4,0,.81-.04,1.21-.13,1.48-.36,2.78-1.39,3.86-3.1v2.87h2.78V24.94h-2.78v8.8Zm0,8.67c-1.21,1.71-2.51,2.69-3.86,2.92-.18,0-.4,.04-.58,.04-2.2,0-3.28-1.84-3.28-5.48,0-1.93,.36-3.46,1.03-4.54,.67-1.08,1.62-1.62,2.83-1.62h.04c1.21,0,2.51,.67,3.82,2.07v6.6Z"/><path class="cls-1" d="M86.11,43.48c-1.35-1.35-2.07-3.14-2.07-5.3s.63-3.91,1.84-5.3c1.21-1.39,2.78-2.07,4.67-2.07,1.62,0,3.37,.4,5.25,1.3v-2.6c-1.84-.54-3.55-.81-5.16-.81-2.87,0-5.16,.9-6.91,2.69-1.8,1.75-2.65,4.09-2.65,6.96s.9,5.12,2.65,6.87c1.8,1.75,4.13,2.6,7,2.6,1.66,0,3.46-.31,5.3-.99v-2.33c-1.75,.72-3.28,1.03-4.62,1.03-2.16,0-3.91-.67-5.3-2.07Z"/><path class="cls-1" d="M109.05,33.79c-1.3-1.44-3.1-2.16-5.34-2.16s-4.04,.72-5.34,2.16c-1.3,1.44-1.93,3.37-1.93,5.88s.63,4.49,1.93,5.93c1.3,1.44,3.05,2.15,5.34,2.15s4.04-.72,5.34-2.15c.54-.58,.94-1.26,1.26-1.98,.45-1.12,.67-2.42,.67-3.95s-.22-2.78-.67-3.91c-.31-.76-.72-1.39-1.26-1.98Zm-2.2,10.28c-.76,1.08-1.8,1.57-3.14,1.57s-2.38-.49-3.14-1.57c-.76-1.03-1.17-2.51-1.17-4.4s.4-3.32,1.17-4.36c.76-1.08,1.8-1.57,3.14-1.57s2.38,.49,3.14,1.57c.76,1.03,1.17,2.51,1.17,4.36s-.4,3.37-1.17,4.4Z"/><path class="cls-1" d="M175.46,33.79c-1.3-1.44-3.1-2.16-5.34-2.16s-4.04,.72-5.34,2.16c-1.3,1.44-1.93,3.37-1.93,5.88s.63,4.49,1.93,5.93c1.3,1.44,3.05,2.15,5.34,2.15s4.04-.72,5.34-2.15c1.3-1.44,1.93-3.41,1.93-5.93s-.63-4.45-1.93-5.88Zm-2.2,10.28c-.76,1.08-1.8,1.57-3.14,1.57s-2.42-.49-3.14-1.57c-.76-1.03-1.17-2.51-1.17-4.4s.4-3.32,1.17-4.36c.72-1.08,1.8-1.57,3.14-1.57s2.38,.49,3.14,1.57c.76,1.03,1.17,2.51,1.17,4.36s-.4,3.37-1.17,4.4Z"/><path class="cls-1" d="M138.78,31.63c-2.24,0-4.04,.72-5.34,2.16-1.3,1.44-1.93,3.37-1.93,5.88s.63,4.49,1.93,5.93c1.3,1.44,3.1,2.15,5.34,2.15s4.04-.72,5.34-2.15c1.3-1.44,1.93-3.41,1.93-5.93s-.63-4.45-1.93-5.88c-1.3-1.44-3.05-2.16-5.34-2.16Zm3.14,12.44c-.76,1.08-1.8,1.57-3.14,1.57s-2.38-.49-3.14-1.57c-.76-1.03-1.17-2.51-1.17-4.4s.4-3.32,1.17-4.36c.76-1.08,1.8-1.57,3.14-1.57s2.38,.49,3.14,1.57c.76,1.03,1.17,2.51,1.17,4.36s-.4,3.37-1.17,4.4Z"/><path class="cls-1" d="M125.62,31.63c-2.2,0-3.95,1.08-5.25,3.23v-2.92h-2.78v15.44h2.78v-10.1c1.53-2.02,3.01-3.01,4.4-3.01,.9,0,1.53,.22,1.89,.76,.4,.49,.58,1.35,.58,2.56v9.79h2.79v-10.55c0-3.5-1.44-5.21-4.4-5.21Z"/><polygon class="cls-1" points="109.59 24.94 109.59 27.05 110.31 27.05 112.42 27.05 112.42 47.39 115.25 47.39 115.25 24.94 110.31 24.94 109.59 24.94"/></g><path class="cls-2" d="M55,49.28h4.62v8.53h-4.62v-8.53h0Zm-11.85,0h4.62v8.53h-4.62v-8.53h0Zm17.78-5.97h8.58v4.62h-8.58v-4.62h0Zm-11.85,0h4.62v4.62h-4.62v-4.62h0Zm-15.85,0h8.62v4.62h-8.62v-4.62h0Zm21.78-5.93h4.62v4.58h-4.62v-4.58h0Zm-11.85,0h4.62v4.58h-4.62v-4.58h0Zm17.78-5.93h8.58v4.58h-8.58v-4.58h0Zm-11.85,0h4.62v4.58h-4.62v-4.58h0Zm-15.85,0h8.62v4.58h-8.62v-4.58h0Zm21.78-9.97h4.62v8.62h-4.62v-8.62h0Zm-11.85,.05h4.62v8.58h-4.62v-8.58Z"/><path class="cls-2" d="M49.07,49.28h4.62v14.14h-4.62v-14.14h0Zm5.93-5.97h4.62v4.62h-4.62v-4.62h0Zm-11.85,0h4.62v4.62h-4.62v-4.62h0Zm17.78-5.93h14.1v4.58h-14.1v-4.58h0Zm-11.85,0h4.62v4.58h-4.62v-4.58h0Zm-21.24,0h14.01v4.58h-14.01v-4.58h0Zm27.16-5.93h4.62v4.58h-4.62v-4.58h0Zm-11.85,0h4.62v4.58h-4.62v-4.58h0Zm5.93-15.22h4.62v13.87h-4.62v-13.87Z"/><g><path class="cls-2" d="M94.15,69.66h-.99v1.53h-.99v.67h.99v3.5c0,.72,.09,1.17,.27,1.3,.13,.18,.58,.27,1.3,.27h.72v-.67h-.45c-.36,0-.58-.04-.72-.13-.09-.09-.13-.31-.13-.72v-3.55h1.3v-.67h-1.3v-1.53Z"/><path class="cls-2" d="M104.88,71.19c-.45,0-.85,.09-1.12,.22-.27,.13-.49,.4-.67,.76l-.09-.09c0-.09,.04-.18,.04-.31v-.58h-.99v5.75h.99v-3.19c0-.54,.09-.9,.31-1.12,.18-.18,.58-.27,1.17-.27h.49v-1.17h-.13Z"/><path class="cls-2" d="M113.99,71.05h-.13c-.67,0-1.26,.27-1.66,.81-.4,.54-.63,1.3-.63,2.24s.22,1.75,.67,2.24c.36,.45,.94,.67,1.62,.76h.31c.31,0,.63-.04,.94-.13,.27-.09,.63-.22,1.03-.4v-.99h-.4c-.27,.22-.54,.4-.76,.49-.22,.13-.49,.18-.81,.18-.09,0-.18-.04-.31-.04-.36-.05-.67-.18-.9-.45-.27-.31-.36-.81-.36-1.44h3.55v-.99c0-.72-.23-1.26-.58-1.71-.4-.4-.9-.58-1.57-.58Zm1.17,2.6h-2.56c0-.67,.13-1.12,.36-1.44,.23-.31,.49-.49,.9-.49h.09c.45,0,.76,.13,.94,.4,.18,.27,.27,.72,.27,1.39v.13Z"/><path class="cls-2" d="M98.59,71.05h-.09c-.72,0-1.26,.27-1.71,.81-.4,.54-.63,1.3-.63,2.24s.22,1.75,.67,2.24c.36,.45,.94,.67,1.66,.76h.27c.31,0,.63-.04,.94-.13,.31-.09,.63-.22,1.03-.4v-.99h-.4c-.27,.22-.54,.4-.76,.49-.22,.13-.49,.18-.81,.18-.09,0-.18-.04-.27-.04-.4-.05-.72-.18-.9-.45-.27-.31-.4-.81-.4-1.44h3.55v-.99c0-.72-.22-1.26-.58-1.71-.4-.4-.9-.58-1.57-.58Zm1.21,2.6h-2.6c0-.67,.14-1.12,.36-1.44,.22-.31,.54-.49,.94-.49h.05c.45,0,.76,.13,.94,.4,.18,.27,.31,.72,.31,1.39v.13Z"/><path class="cls-2" d="M108.52,71.05c-.27,0-.54,.05-.76,.13-.22,.09-.45,.22-.67,.4h-.09v-.4h-1.03v5.75h.99v-4.53c.27-.18,.49-.31,.67-.4,.22-.09,.45-.13,.63-.13,.4,0,.63,.09,.81,.31,.13,.27,.22,.67,.22,1.26v3.5h.99v-3.77c0-.67-.13-1.21-.45-1.57-.31-.36-.72-.54-1.3-.54Z"/><path class="cls-2" d="M111.61,60.23c-.27-.27-.67-.49-1.17-.63-.58-.18-.99-.31-1.17-.45-.13-.13-.22-.36-.22-.58,0-.27,.09-.45,.27-.63,.18-.13,.4-.22,.67-.22,.31,0,.54,.09,.76,.22,.18,.13,.4,.31,.54,.58h.45v-1.12c-.27-.13-.58-.18-.85-.27-.27-.04-.54-.09-.81-.09-.58,0-1.08,.18-1.48,.45-.36,.31-.54,.72-.54,1.21,0,.4,.13,.72,.36,.99,.27,.27,.63,.49,1.17,.67h.13c.85,.27,1.26,.63,1.26,1.08,0,.27-.09,.49-.27,.67-.22,.13-.49,.22-.81,.22s-.58-.05-.81-.18c-.22-.13-.4-.31-.58-.54h-.49v1.03c.27,.13,.54,.27,.85,.31,.31,.09,.67,.13,1.08,.13,.63,0,1.08-.18,1.48-.49,.36-.36,.54-.81,.54-1.35,0-.4-.13-.72-.36-1.03Z"/><rect class="cls-1" x="197.28" y="68.9" width=".99" height="8.04"/><path class="cls-2" d="M107.12,62.57v-.94h-.4c-.27,.22-.49,.36-.76,.49-.22,.09-.49,.13-.76,.13-.13,0-.22,0-.31-.04-.4-.04-.67-.18-.9-.45-.27-.31-.4-.76-.4-1.44h3.55v-.94c0-.72-.18-1.3-.58-1.71-.36-.45-.9-.63-1.53-.63h-.13c-.72,0-1.26,.31-1.66,.81-.45,.54-.67,1.3-.67,2.29s.22,1.71,.67,2.2c.4,.45,.94,.72,1.66,.76h.31c.27,0,.58-.05,.9-.13,.31-.05,.67-.18,1.03-.4Zm-3.19-4.36c.22-.31,.54-.45,.94-.49h.09c.4,0,.72,.13,.9,.4,.22,.27,.31,.76,.31,1.39v.13h-2.6c0-.63,.13-1.12,.36-1.44Z"/><polygon class="cls-2" points="81.98 69.79 83.19 69.79 83.19 76.17 81.98 76.17 81.98 76.93 85.44 76.93 85.44 76.17 84.23 76.17 84.23 69.79 85.44 69.79 85.44 69.08 81.98 69.08 81.98 69.79"/><path class="cls-2" d="M117.94,59.74c0-.54,.09-.9,.31-1.08,.18-.22,.58-.31,1.17-.31h.49v-1.12h-.09c-.49,0-.85,.04-1.17,.18-.27,.18-.49,.4-.67,.76l-.09-.04c0-.13,.04-.22,.04-.31v-.58h-.99v5.7h.99v-3.19Z"/><path class="cls-2" d="M89.39,71.05c-.31,0-.54,.05-.81,.13-.22,.09-.45,.22-.67,.4h-.09v-.4h-.99v5.75h.99v-4.53c.22-.18,.45-.31,.67-.4,.18-.09,.4-.13,.63-.13,.36,0,.63,.09,.76,.31,.18,.27,.23,.67,.23,1.26v3.5h.99v-3.77c0-.67-.13-1.21-.45-1.57-.27-.36-.72-.54-1.26-.54Z"/><rect class="cls-1" x="141.56" y="57.22" width=".99" height="5.7"/><path class="cls-2" d="M113.63,61.4c0,.67,.09,1.12,.22,1.26l.05,.04c.13,.13,.58,.22,1.3,.22h.72v-.67h-.45c-.36,0-.58-.04-.72-.13-.09-.05-.14-.31-.14-.67v-3.55h1.3v-.67h-1.3v-1.57h-.99v1.57h-.99v.67h.99v3.5Z"/><rect class="cls-1" x="141.47" y="54.89" width="1.26" height=".94"/><path class="cls-2" d="M132.04,55.83c.27-.27,.54-.49,.85-.72,.31-.27,.67-.49,1.03-.72v-.31h-1.21c-.18,.31-.4,.58-.63,.85l-.04,.04c-.18,.27-.4,.45-.67,.67v.22h.67v-.04Z"/><path class="cls-2" d="M96.17,63.1c.76,0,1.35-.27,1.8-.81,.22-.31,.4-.67,.54-1.08,.05-.36,.09-.76,.09-1.17,0-.45-.05-.81-.09-1.17-.13-.4-.31-.76-.54-1.08-.45-.49-1.03-.76-1.8-.76h-.04c-.72,0-1.3,.27-1.75,.81-.45,.54-.67,1.21-.67,2.11,0,.99,.22,1.75,.63,2.33,.45,.54,1.03,.81,1.84,.81Zm-1.08-4.71c.22-.36,.58-.54,1.03-.54h.04c.45,0,.81,.18,1.08,.54,.22,.4,.36,.94,.36,1.62,0,.72-.13,1.3-.4,1.66-.22,.4-.58,.58-1.03,.58-.49,0-.85-.18-1.08-.58-.27-.36-.36-.94-.36-1.71,0-.67,.09-1.17,.36-1.57Z"/><path class="cls-2" d="M84.94,63.1c.94,0,1.62-.27,2.07-.76,.4-.49,.63-1.35,.63-2.51v-4.76h-1.03v4.85c0,.81-.14,1.39-.4,1.75-.27,.36-.67,.54-1.26,.54s-.99-.18-1.26-.54c-.27-.36-.4-.94-.4-1.75v-4.85h-1.03v4.76c0,1.17,.22,2.02,.63,2.51,.4,.49,1.12,.76,2.06,.76Z"/><path class="cls-2" d="M118.89,69.66h-.99v1.53h-1.03v.67h1.03v3.5c0,.72,.09,1.17,.23,1.3,.18,.18,.63,.27,1.35,.27h.67v-.67h-.4c-.4,0-.63-.04-.72-.13-.09-.09-.13-.31-.13-.72v-3.55h1.26v-.67h-1.26v-1.53Z"/><path class="cls-2" d="M90.78,63.1c.63,0,1.12-.18,1.48-.49,.36-.36,.54-.81,.54-1.35,0-.4-.13-.72-.36-1.03-.27-.27-.63-.49-1.17-.63-.58-.18-.99-.31-1.12-.45-.18-.13-.27-.36-.27-.58,0-.27,.09-.45,.27-.63,.18-.13,.4-.22,.67-.22,.31,0,.54,.09,.76,.22,.22,.13,.4,.31,.54,.58h.45v-1.12c-.27-.13-.58-.18-.85-.27-.27-.04-.54-.09-.81-.09-.58,0-1.08,.18-1.48,.45-.36,.31-.54,.72-.54,1.21,0,.4,.14,.72,.36,.99,.27,.27,.63,.49,1.21,.67h.09c.85,.27,1.26,.63,1.26,1.08,0,.27-.09,.49-.27,.67-.22,.13-.49,.22-.81,.22s-.58-.05-.81-.18c-.22-.13-.4-.31-.54-.54h-.54v1.03c.27,.13,.54,.27,.85,.31,.31,.09,.72,.13,1.08,.13Z"/><path class="cls-2" d="M148.25,61.4h-.45c-.18,.27-.4,.49-.63,.58-.22,.13-.45,.22-.72,.22-.45,0-.81-.18-1.08-.58-.27-.36-.4-.9-.4-1.57s.13-1.21,.4-1.62c.27-.36,.63-.54,1.08-.54,.27,0,.54,.04,.72,.18,.22,.13,.4,.36,.58,.63h.49v-1.12c-.4-.18-.72-.31-.99-.4-.27-.09-.54-.13-.76-.13-.76,0-1.39,.27-1.84,.81-.45,.54-.72,1.26-.72,2.15,0,.94,.27,1.71,.72,2.24,.45,.54,1.08,.85,1.84,.85,.31,0,.58-.05,.85-.13,.31-.13,.58-.27,.9-.45v-1.12Z"/><path class="cls-2" d="M172.5,73.61c-.58-.18-.99-.31-1.12-.49-.18-.13-.27-.31-.27-.58,0-.22,.09-.4,.27-.58,.18-.14,.4-.22,.67-.22,.31,0,.54,.04,.76,.18,.23,.13,.4,.36,.54,.63h.45v-1.12c-.27-.13-.58-.22-.85-.27-.27-.04-.54-.09-.76-.09-.63,0-1.12,.13-1.48,.45-.4,.31-.58,.72-.58,1.21,0,.4,.14,.72,.36,.99,.27,.27,.67,.45,1.21,.63l.09,.05c.85,.27,1.3,.63,1.3,1.08,0,.27-.13,.49-.31,.63-.22,.18-.49,.27-.81,.27s-.58-.04-.81-.18c-.22-.13-.4-.31-.54-.58h-.54v1.08c.27,.13,.54,.22,.85,.31,.36,.09,.72,.13,1.08,.13,.63,0,1.12-.18,1.48-.54,.36-.31,.54-.76,.54-1.3,0-.4-.09-.76-.36-1.03-.27-.27-.63-.49-1.17-.63Z"/><path class="cls-2" d="M151.39,71.64c-.36-.4-.9-.58-1.53-.58h-.13c-.72,0-1.26,.27-1.66,.81-.45,.54-.67,1.3-.67,2.24s.22,1.75,.67,2.24c.4,.45,.94,.67,1.66,.76h.31c.27,0,.58-.04,.9-.13,.18-.04,.36-.09,.58-.18,.13-.04,.31-.13,.45-.22v-.99h-.4l-.04,.09c-.27,.18-.49,.31-.67,.4-.27,.13-.54,.18-.81,.18-.09,0-.23-.04-.31-.04-.36-.05-.67-.18-.9-.45-.27-.31-.4-.81-.4-1.44h3.55v-.99c0-.63-.13-1.17-.45-1.57-.04-.04-.09-.09-.13-.13Zm-.36,2.02h-2.6c.04-.67,.13-1.12,.36-1.44,.22-.31,.54-.49,.94-.49h.09c.4,0,.72,.13,.94,.4,.18,.27,.27,.72,.27,1.39v.13Z"/><path class="cls-2" d="M166.12,63.1h.31c.31,0,.58-.05,.9-.13,.31-.05,.67-.18,1.03-.4v-.94h-.4c-.22,.22-.49,.36-.72,.49-.27,.09-.54,.13-.81,.13-.09,0-.22,0-.31-.04-.36-.04-.67-.18-.9-.45-.27-.31-.4-.76-.4-1.44h3.55v-.94c0-.72-.18-1.3-.58-1.71-.36-.45-.9-.63-1.53-.63h-.13c-.67,0-1.26,.31-1.66,.81-.45,.54-.67,1.3-.67,2.29s.22,1.71,.67,2.2c.4,.45,.94,.72,1.66,.76Zm-.94-4.89c.22-.31,.54-.45,.94-.49h.09c.45,0,.72,.13,.94,.4,.18,.27,.27,.76,.27,1.39v.13h-2.6c.04-.63,.13-1.12,.36-1.44Z"/><path class="cls-2" d="M139.58,63.78c.09-.18,.18-.4,.23-.67,.05-.27,.05-.67,.05-1.3v-4.58h-.94v.36h-.13c-.22-.18-.45-.31-.63-.4-.18-.09-.36-.13-.54-.13h-.18c-.63,0-1.17,.22-1.53,.72-.4,.45-.58,1.12-.58,1.93s.18,1.44,.58,1.93c.36,.45,.9,.72,1.53,.72,.04,0,.13-.05,.18-.05,.18,0,.36-.04,.54-.09,.18-.09,.4-.27,.63-.45h.09c.04,.09,.04,.13,.04,.18v.27c0,.58-.09,.99-.31,1.26-.22,.22-.54,.36-.99,.36h-.04c-.4,0-.72-.04-1.03-.18-.27-.13-.49-.31-.76-.63h-.4v1.21c.36,.13,.72,.27,1.08,.36,.36,.09,.72,.13,1.08,.13h.09c.45,0,.85-.09,1.21-.22,.36-.18,.63-.4,.76-.72Zm-.67-2.69c-.22,.13-.45,.27-.63,.36-.18,.09-.4,.13-.58,.13h-.09c-.4-.04-.72-.18-.94-.49-.23-.31-.31-.76-.31-1.39s.09-1.08,.31-1.44c.22-.31,.54-.45,.94-.49h.09c.18,0,.4,.04,.58,.13,.22,.09,.4,.22,.63,.4v2.78Z"/><path class="cls-2" d="M142.64,71.55c-.36-.31-.85-.49-1.57-.49h-.09c-.27,0-.54,.05-.85,.09-.27,.04-.54,.13-.85,.22v1.17h.45c.18-.22,.4-.4,.63-.49,.22-.13,.45-.18,.67-.18h.05c.36,0,.63,.09,.81,.22,.22,.13,.31,.36,.31,.63v.49l-.63,.09c-.18,.04-.31,.04-.49,.09-.72,.18-1.21,.4-1.53,.67-.4,.27-.63,.72-.63,1.26s.18,.94,.49,1.26c.31,.31,.72,.49,1.21,.49,.18,0,.31,0,.45-.05,.13-.04,.27-.04,.4-.13,.27-.09,.49-.27,.72-.49v.54h.99v-3.95c0-.67-.18-1.12-.54-1.44Zm-.45,4.18c-.22,.18-.4,.31-.58,.4-.18,.04-.36,.09-.54,.09h-.05c-.31,0-.54-.09-.76-.27-.18-.18-.27-.4-.27-.67,0-.36,.13-.63,.49-.85,.13-.09,.31-.22,.58-.27,.31-.13,.67-.22,1.12-.31v1.89Z"/><path class="cls-2" d="M178.51,71.55c-.36-.31-.85-.49-1.57-.49h-.09c-.27,0-.54,.05-.85,.09-.27,.04-.54,.13-.9,.22v1.17h.49c.18-.22,.4-.4,.63-.49,.18-.13,.45-.18,.67-.18h.04c.36,0,.63,.09,.81,.22s.31,.36,.31,.63v.49l-.63,.09c-.18,.04-.31,.04-.49,.09-.72,.18-1.21,.4-1.57,.67-.36,.27-.58,.72-.58,1.26s.18,.94,.49,1.26c.31,.31,.72,.49,1.21,.49,.18,0,.31,0,.45-.05,.13-.04,.27-.04,.4-.13,.27-.09,.49-.27,.72-.49v.54h.94v-3.95c0-.67-.13-1.12-.49-1.44Zm-.45,4.18c-.22,.18-.4,.31-.58,.4-.18,.04-.36,.09-.54,.09h-.04c-.32,0-.54-.09-.76-.27-.18-.18-.27-.4-.27-.67,0-.36,.13-.63,.45-.85,.18-.09,.36-.22,.63-.27,.31-.13,.67-.22,1.12-.31v1.89Z"/><path class="cls-2" d="M160.24,63.1c.18-.05,.36-.09,.49-.13,.22-.13,.45-.27,.67-.54l.09,.05v.45h.99v-8.04h-.99v2.74l-.09,.04c-.22-.22-.45-.4-.67-.49-.13-.09-.31-.13-.49-.13h-.22c-.63,0-1.12,.27-1.53,.81-.36,.54-.54,1.3-.54,2.2,0,.94,.18,1.71,.54,2.24,.4,.54,.94,.81,1.57,.81h.18Zm-.94-1.39c-.22-.36-.36-.94-.36-1.62,0-.76,.13-1.3,.36-1.66,.22-.36,.54-.54,.94-.54h.04c.22,0,.4,.04,.63,.13,.18,.09,.4,.22,.58,.45v3.19c-.18,.18-.4,.36-.58,.45-.22,.09-.4,.13-.63,.13h-.04c-.4,0-.72-.22-.94-.54Z"/><rect class="cls-1" x="194.49" y="68.9" width=".99" height="8.04"/><rect class="cls-1" x="153.37" y="68.9" width=".99" height="8.04"/><path class="cls-2" d="M153.32,57.81c-.45-.49-1.03-.76-1.8-.76h-.04c-.72,0-1.3,.27-1.75,.76v.05c-.45,.54-.67,1.21-.67,2.11,0,.99,.22,1.75,.63,2.33l.05,.05c.45,.49,1.03,.76,1.8,.76s1.35-.27,1.8-.81c.45-.54,.63-1.3,.63-2.24s-.18-1.71-.63-2.24Zm-.76,3.86c-.23,.4-.58,.58-1.03,.58-.49,0-.85-.18-1.08-.58-.27-.36-.4-.94-.4-1.71,0-.67,.13-1.17,.4-1.57,.22-.36,.58-.54,1.03-.54h.04c.45,0,.81,.18,1.03,.54,.27,.4,.4,.94,.4,1.62,0,.72-.13,1.3-.4,1.66Z"/><path class="cls-2" d="M167.06,71.05c-.36,0-.67,.05-.94,.13-.31,.13-.63,.36-.85,.67-.45,.54-.67,1.3-.67,2.24s.23,1.75,.67,2.24c.23,.27,.54,.45,.85,.58,.31,.13,.67,.18,1.12,.18,.27,0,.58-.04,.9-.13,.31-.09,.67-.22,1.03-.4v-.99h-.4c-.22,.22-.49,.4-.72,.49-.27,.13-.54,.18-.81,.18-.49,0-.85-.13-1.12-.4l-.09-.09c-.27-.31-.4-.81-.4-1.44h3.55v-.99c0-.72-.18-1.26-.58-1.71-.36-.4-.9-.58-1.53-.58Zm1.17,2.6h-2.6c.04-.67,.13-1.12,.36-1.44,.04-.09,.09-.13,.13-.18,.22-.22,.54-.31,.9-.31,.4,0,.72,.13,.94,.4,.18,.27,.27,.72,.27,1.39v.13Z"/><path class="cls-2" d="M162.3,71.64l-.09,.04c-.22-.22-.45-.4-.67-.49-.22-.13-.45-.18-.72-.18-.18,0-.4,.04-.58,.09-.36,.13-.67,.4-.94,.76-.36,.54-.54,1.26-.54,2.2s.18,1.66,.54,2.24c.27,.36,.58,.58,.94,.72,.18,.05,.4,.09,.63,.09s.49-.04,.67-.18c.23-.09,.45-.27,.67-.49l.09,.05v.45h.99v-8.04h-.99v2.74Zm0,4.04c-.18,.18-.4,.31-.58,.4-.22,.13-.4,.18-.63,.18-.36,0-.63-.13-.85-.4-.04-.05-.09-.09-.13-.18-.22-.36-.36-.9-.36-1.62s.14-1.26,.36-1.62c.05-.09,.09-.14,.13-.22,.22-.22,.49-.36,.85-.36,.22,0,.4,.04,.63,.18,.18,.09,.4,.22,.58,.4v3.23Z"/><path class="cls-2" d="M126.61,71.01h-.18c-.18,.04-.36,.09-.54,.18-.23,.09-.4,.27-.63,.49l-.13-.04v-.45h-.99v7.54h.99v-2.24l.13-.05c.22,.22,.4,.4,.63,.49,.18,.09,.36,.13,.54,.18h.18c.63,0,1.17-.27,1.53-.81,.36-.54,.58-1.3,.58-2.24s-.23-1.66-.58-2.2c-.4-.58-.9-.85-1.53-.85Zm.76,4.67c-.22,.36-.54,.54-.94,.58h-.09c-.18,0-.4-.04-.58-.18-.22-.09-.4-.22-.63-.4v-3.19c.22-.22,.4-.36,.63-.45,.18-.13,.4-.18,.58-.18h.09c.4,.04,.72,.22,.94,.58,.23,.36,.31,.9,.31,1.62s-.09,1.26-.31,1.62Z"/><path class="cls-2" d="M127.73,55.65h-.99v1.57h-1.03v.67h1.03v3.5c0,.67,.09,1.12,.22,1.3,.18,.13,.63,.22,1.35,.22h.67v-.67h-.4c-.4,0-.63-.04-.72-.13-.09-.05-.13-.31-.13-.67v-3.55h1.26v-.67h-1.26v-1.57Z"/><path class="cls-2" d="M133.3,71.55c-.31-.27-.72-.45-1.26-.49h-.4c-.27,0-.54,.05-.81,.09-.31,.04-.58,.13-.9,.22v1.17h.45c.18-.22,.4-.4,.63-.49,.22-.13,.45-.18,.67-.18h.36c.23,.04,.36,.13,.49,.22,.22,.13,.31,.36,.31,.63v.49l-.63,.09-.18,.04c-.85,.18-1.48,.4-1.84,.72-.4,.27-.58,.72-.58,1.26s.13,.94,.45,1.26c.31,.31,.72,.49,1.21,.49,.27,0,.54-.05,.76-.13t.09-.05c.27-.09,.49-.27,.72-.49v.54h.99v-3.95c0-.67-.18-1.12-.54-1.44Zm-.45,4.18c-.23,.18-.4,.31-.58,.4-.09,0-.13,.04-.23,.04-.09,.05-.22,.05-.36,.05-.31,0-.54-.09-.76-.27-.18-.18-.27-.4-.27-.67,0-.36,.13-.63,.49-.85,.18-.13,.49-.27,.9-.4,.23-.05,.49-.09,.81-.18v1.89Z"/><path class="cls-2" d="M124.68,62.92v-3.95c0-.63-.18-1.12-.54-1.44-.36-.31-.85-.45-1.57-.49h-.09c-.27,0-.54,.04-.85,.09-.27,.04-.54,.13-.85,.27v1.12h.45c.18-.22,.4-.4,.63-.49,.22-.13,.45-.18,.67-.18h.04c.36,0,.63,.09,.81,.22,.18,.13,.31,.36,.31,.63v.49l-.63,.09c-.18,.04-.31,.09-.49,.13-.72,.13-1.21,.36-1.57,.63-.36,.31-.58,.72-.58,1.26s.18,.94,.49,1.3c.31,.31,.72,.45,1.21,.45,.18,0,.31,0,.45-.04,.14,0,.27-.04,.4-.09,.27-.13,.49-.31,.72-.49v.49h.99Zm-1.57-.81c-.18,.09-.36,.09-.54,.13h-.04c-.31,0-.54-.09-.76-.31-.18-.18-.27-.4-.27-.67,0-.36,.13-.63,.49-.85,.13-.09,.31-.18,.58-.27,.31-.09,.67-.22,1.12-.27v1.84c-.22,.18-.4,.31-.58,.4Z"/><path class="cls-2" d="M182.37,71.41c-.27,.13-.49,.4-.67,.76l-.09-.09v-.31c.05-.09,.05-.22,.05-.36v-.22h-.99v5.75h.99v-3.19c0-.54,.09-.9,.27-1.12,.23-.18,.58-.27,1.17-.27h.49v-1.17h-.05c-.49,0-.9,.09-1.17,.22Z"/><path class="cls-2" d="M190.63,71.05h-.04c-.72,0-1.3,.22-1.75,.76-.45,.54-.67,1.26-.67,2.16,0,.99,.23,1.75,.67,2.29,.4,.54,1.03,.85,1.8,.85s1.39-.27,1.8-.81c.45-.54,.67-1.3,.67-2.29s-.22-1.66-.67-2.2c-.4-.49-1.03-.76-1.8-.76Zm1.08,4.62c-.27,.4-.63,.58-1.08,.58s-.81-.18-1.08-.58c-.23-.4-.36-.94-.36-1.71,0-.67,.13-1.21,.36-1.57,.27-.36,.63-.54,1.08-.54,.49,0,.85,.18,1.08,.54,.22,.36,.36,.9,.36,1.62s-.14,1.26-.36,1.66Z"/><path class="cls-2" d="M137.61,71.28c-.18,.05-.31,.09-.45,.13-.27,.13-.49,.4-.67,.76l-.09-.09c0-.09,.04-.18,.04-.31v-.58h-.99v5.75h.99v-3.19c0-.54,.09-.9,.31-1.12,.13-.13,.45-.22,.85-.27h.81v-1.17h-.09c-.27,0-.49,.05-.72,.09Z"/><path class="cls-2" d="M186.32,71.41c-.31,.13-.54,.4-.72,.76l-.09-.09c0-.09,.04-.18,.04-.31v-.58h-.99v5.75h.99v-3.19c0-.54,.09-.9,.31-1.12,.18-.18,.58-.27,1.17-.27h.49v-1.17h-.09c-.49,0-.85,.09-1.12,.22Z"/><path class="cls-2" d="M132.18,57.04h-.13c-.67,0-1.26,.31-1.66,.81-.45,.54-.67,1.3-.67,2.29s.22,1.71,.67,2.2c.4,.45,.94,.72,1.66,.76h.31c.31,0,.58-.05,.9-.13,.31-.05,.67-.18,1.03-.4v-.94h-.4c-.23,.22-.49,.36-.72,.49-.27,.09-.54,.13-.81,.13-.09,0-.22,0-.31-.04-.36-.04-.67-.18-.9-.45-.27-.31-.4-.76-.4-1.44h3.55v-.94c0-.72-.18-1.3-.58-1.71-.36-.45-.9-.63-1.53-.63Zm1.17,2.6h-2.6c.04-.63,.13-1.12,.36-1.44,.23-.31,.54-.45,.94-.49h.09c.45,0,.72,.13,.94,.4,.18,.27,.27,.76,.27,1.39v.13Z"/><path class="cls-2" d="M203.92,71.81c-.45-.49-1.03-.76-1.84-.76-.76,0-1.35,.22-1.8,.76-.45,.54-.63,1.26-.63,2.16,0,.99,.18,1.75,.63,2.29,.45,.54,1.03,.85,1.8,.85,.81,0,1.39-.27,1.84-.81,.4-.54,.63-1.3,.63-2.29s-.22-1.66-.63-2.2Zm-.76,3.86c-.27,.4-.58,.58-1.08,.58-.45,0-.81-.18-1.08-.58-.22-.4-.36-.94-.36-1.71,0-.67,.13-1.21,.36-1.57,.27-.36,.63-.54,1.08-.54,.49,0,.85,.18,1.08,.54,.27,.36,.36,.9,.36,1.62s-.09,1.26-.36,1.66Z"/></g></g></g></g></svg>