<?xml version="1.0" encoding="UTF-8"?><svg xmlns="http://www.w3.org/2000/svg" viewBox="0 0 342.12 139.11"><defs><style>.d{fill:#f1931a;}.e{fill:#f1941b;}.f{fill:#82ac29;}</style></defs><g id="a"/><g id="b"><g id="c"><g><path class="e" d="M159.77,16.69c1.71,1.59,3.55,3.06,5.1,4.79,3.89,4.34,6.07,9.55,7.54,15.14,2.24,8.55,2.36,17.26,2.38,26.01,.03,7.98-.55,15.91-1.96,23.75-1.69,9.38-4.42,18.47-9.59,26.56-2.44,3.81-5.44,7.32-8.56,10.61-4.48,4.73-10.08,7.94-16.08,10.41-5.48,2.25-11.17,3.69-17.07,4.29-3.08,.31-6.15,.88-9.23,.86-4.3-.03-8.64-.22-12.89-.84-4.25-.62-8.45-1.72-12.59-2.88-2.76-.77-5.4-2.02-8.08-3.06-.21-.08-.38-.25-.76-.5,1.33-.77,2.54-1.38,3.65-2.15,4.64-3.2,7.29-7.72,9.55-12.88,2.82-6.45,6.33-21.45,6.83-42.87,.08-3.41-.21-6.86-.32-10.3-.11-3.43-.45-6.86-.36-10.28,.14-5.07-.41-10.14,1.04-15.2,1.19-6.61,2.62-11.67,7.02-16.73,2.27-1.9,4.54-3.87,7.06-5.41,5.94-3.62,12.63-3.83,19.25-3.18,2.45,.24,4.81,1.86,7.1,3.06,2.66,1.39,4.67,3.52,6.23,6.1,1.37,2.25,2.86,4.43,4.3,6.63,1.56,2.38,2.17,5.12,2.23,7.82,.1,4.8-.12,9.62-.51,14.4-.13,1.63-1.34,3.14-1.82,4.77-1.29,4.38-4.46,7.03-8.22,9.16-2.18,1.24-4.62,1.28-7.03,1.28-4.6,0-9.12-.57-13.34-2.53-4.84-2.25-7.9-6.11-9.29-11.16-1.27-4.6-.84-9.38,.62-13.79,1.01-3.05,2.76-6.3,6.48-7.1,4.96-1.07,9.66-.57,13.58,3.13,.75,.71,1.61,1.29,2.42,1.93,4.08,3.26,5.09,9.83,.02,13.71-.59,.45-1.56,.62-2.32,.56-2.69-.21-4.95-1.28-6.11-3.89-.81-1.83-1.55-3.71-2.2-5.61-.37-1.08-.88-1.81-2.06-2.03-1.2-.23-2.14,.16-2.89,1.05-1.25,1.51-1.76,3.2-1.95,5.21-.36,3.82,1.06,6.74,3.52,9.46,2.14,2.36,4.98,3.03,7.88,3.62,1.58,.32,3.2,.47,4.8,.73,2.47,.41,4.64-.48,6.46-1.9,5.69-4.43,6.58-10.35,5.18-17.05-.86-4.15-2.62-7.79-5.1-11.15-2.77-3.75-6.45-6.37-10.99-7.12-3.3-.55-6.81-.45-10.14,0-2.69,.37-11.15,5.12-12.28,13.23-.99,6.73-2.44,13.43-2.11,20.28,.17,3.42,.72,6.83,.88,10.25,.14,2.93-.05,5.87-.07,8.81-.01,1.66-.04,3.32,.05,4.97,.47,8.47,.97,16.93,1.46,25.39,.13,2.25,.38,4.5,.38,6.75-.01,3.3,.91,6.39,1.93,9.45,.45,1.35,2.46,2.43,3.81,2.19,1.53-.27,3.03-1.79,3.18-3.25,.01-.1,0-.2,.01-.29,.18-6.52,.39-13.05,.51-19.57,.08-4.11,.06-8.22-.02-12.33-.07-3.58-.35-7.16-.43-10.74-.03-1.3,.26-2.6,.45-4.33,2.24,.78,4.2,1.41,6.11,2.18,.29,.12,.45,.86,.47,1.32,.23,4.4,.46,8.8,.59,13.21,.16,5.15,.23,10.31,.34,15.46,.02,1.08-.01,2.17,.1,3.24,.51,4.86,1.07,9.72,1.6,14.57,.09,.78,.19,1.56,.24,2.34,.16,2.77,2.46,4.71,5.19,4.36,1.17-.15,1.78-.74,1.99-1.97,.92-5.46-.02-10.85-.36-16.28-.21-3.33-.1-6.68-.23-10.01-.17-4.26-.45-8.52-.66-12.78-.1-2.06-.14-4.12-.24-6.17-.07-1.37-.31-2.74-.26-4.1,.03-.84,.24-1.92,.79-2.43,.73-.68,2.74-.07,3.27,.85,.48,.83,.93,1.78,1.03,2.71,.58,5.61,1.05,11.22,1.55,16.84,.43,4.88,.98,9.75,1.22,14.63,.15,3.08,1.1,5.84,2.34,8.57,.75,1.65,2.12,2.13,3.79,2.27,1.67,.14,2.22-.97,2.76-2.16,1.44-3.15,.99-6.45,.68-9.72-.38-3.95-.95-7.89-1.23-11.84-.4-5.58-.65-11.16-.86-16.75-.07-1.9,.11-3.83,.29-5.73,.18-1.9,1.69-1.48,2.93-1.57,1.27-.09,1.79,.49,1.9,1.68,.48,5.32,.94,10.65,1.48,15.96,.36,3.56,.68,7.13,1.32,10.64,.31,1.69,1.27,3.27,2.05,4.85,.6,1.22,1.63,1.76,3.06,1.43,1.5-.34,1.92-1.44,1.96-2.74,.13-3.77,.36-7.54,.27-11.31-.12-5.43-.57-10.85-.73-16.28-.13-4.37-.11-8.75-.04-13.12,.1-6.67,.3-13.34,.44-20.01,.06-2.84,.25-5.7,.02-8.52-.48-5.89-.22-11.87-2.07-17.6-.2-.61-.16-1.3-.24-1.95l.6-.34Z"/><path class="f" d="M95.05,18.12c1.6-3.64,5.1-10.87,5.1-10.87-10.64,.28-20.66-1.56-36.06-3.52C48.7,1.76,28.78-2.77,15.05,2.36,1.32,7.49-2.91,20.02,1.92,44.77c4.83,24.75,22.84,45.05,22.84,45.05,.13-6.67,.34-13.34,.44-20.01,.06-4.37,.09-8.75-.04-13.12-.16-5.43-.61-10.85-.73-16.28-.09-3.77,.14-7.54,.27-11.31,.05-1.3,.46-2.4,1.96-2.74,1.43-.33,2.45,.21,3.06,1.43,.78,1.58,1.74,3.16,2.05,4.85,.64,3.51,.96,7.08,1.32,10.64,.54,5.32,1,10.64,1.48,15.96,.11,1.19,.63,1.77,1.9,1.68,1.24-.09,2.75,.32,2.93-1.57,.18-1.9,.36-3.83,.29-5.73-.21-5.59-.47-11.17-.86-16.75-.28-3.96-.86-7.89-1.23-11.84-.31-3.27-.76-6.57,.68-9.72,.54-1.19,1.09-2.31,2.76-2.16,1.67,.14,3.04,.62,3.79,2.27,1.24,2.73,2.19,5.49,2.34,8.57,.24,4.89,.79,9.76,1.22,14.63,.5,5.61,.97,11.23,1.55,16.84,.1,.93,.55,1.88,1.03,2.71,.53,.92,2.53,1.53,3.27,.85,.55-.51,.76-1.59,.79-2.43,.05-1.36-.19-2.73-.26-4.1-.1-2.06-.14-4.12-.24-6.17-.21-4.26-.49-8.52-.66-12.78-.13-3.34-.02-6.68-.23-10.01-.34-5.42-1.28-10.82-.36-16.28,.21-1.23,.82-1.82,1.99-1.97,2.74-.35,5.04,1.59,5.19,4.36,.04,.78,.15,1.56,.24,2.34,.54,4.86,1.09,9.71,1.6,14.57,.11,1.07,.08,2.16,.1,3.24,.11,5.15,.18,10.31,.34,15.46,.14,4.41,.37,8.81,.59,13.21,.02,.46,.18,1.2,.47,1.32,1.91,.77,3.88,1.4,6.11,2.18,.19-1.73,.48-3.03,.45-4.33-.08-3.58-.36-7.16-.43-10.74-.08-4.11-.1-8.22-.02-12.33,.12-6.53,.34-13.05,.51-19.57,0-.1,0-.2,.01-.29,.15-1.46,1.65-2.98,3.18-3.25,1.35-.23,3.35,.84,3.81,2.19,1.02,3.07,1.94,6.15,1.93,9.45,0,2.25,.25,4.5,.38,6.75,.49,8.46,.99,16.93,1.46,25.39,.09,1.65,.06,3.32,.05,4.97-.02,2.94-.21,5.88-.07,8.81,.16,3.42,.71,6.83,.88,10.25,.33,6.86-.73,13.62-2.11,20.28-1.31,6.39-9.58,12.86-12.28,13.23-3.33,.46-6.84,.56-10.14,0-4.54-.76-8.23-3.38-10.99-7.12-2.48-3.36-4.23-7-5.1-11.15-1.4-6.7-.5-12.63,5.18-17.05,1.82-1.42,4-2.31,6.46-1.9,1.6,.26,3.21,.41,4.8,.73,2.89,.59,5.73,1.26,7.88,3.62,2.46,2.72,3.88,5.64,3.52,9.46-.19,2.01-.7,3.71-1.95,5.21-.74,.89-1.69,1.28-2.89,1.06-1.17-.22-1.69-.96-2.06-2.03-.65-1.9-1.38-3.77-2.2-5.61-1.16-2.61-3.42-3.68-6.11-3.89-.77-.06-1.74,.11-2.32,.56-5.07,3.88-4.06,10.45,.02,13.71,.81,.64,1.67,1.22,2.42,1.93,3.92,3.71,8.62,4.21,13.58,3.13,3.71-.81,5.47-4.05,6.48-7.1,1.46-4.41,1.88-9.18,.62-13.79-1.39-5.05-4.45-8.91-9.29-11.16-4.22-1.97-5.65-3.24-10.25-3.25-2.41,0-6.67-.84-8.85,.4-3.75,2.13-7.86,3.67-9.15,8.05-.48,1.63-3.07,5.6-3.21,7.23-.4,4.78-.61,9.6-.51,14.4,.02,1.05,.29,2.14,.69,3.22,3.35,3.33,12.47,12.08,24.25,20.9,5.28,.16,10.49-.56,15.22-3.44,2.52-1.54,4.79-3.5,7.06-5.41,.91-.76,1.73-1.79,2.24-2.86,2.14-4.43,3.42-9.15,4.77-13.87,1.45-5.06,.9-10.13,1.04-15.2,.1-3.42-.25-6.85-.36-10.28-.11-3.44-.4-6.89-.32-10.3,.5-21.42,4.01-36.42,6.83-42.87Z"/><path class="d" d="M205.61,47.79h-7.67v23.36h-6.16v-23.36h-7.53v-5.34h21.37v5.34Z"/><path class="d" d="M217.71,61h-3.34v10.15h-6.16v-28.7h10.06c3.03,0,5.4,.75,7.11,2.26,1.71,1.51,2.56,3.64,2.56,6.4,0,2-.36,3.65-1.08,4.96-.72,1.31-1.85,2.38-3.38,3.19l5.34,11.59v.3h-6.6l-4.51-10.15Zm-3.34-5.32h3.9c1.17,0,2.05-.35,2.64-1.04,.59-.69,.89-1.66,.89-2.89s-.3-2.21-.9-2.91c-.6-.7-1.48-1.06-2.63-1.06h-3.9v7.9Z"/><path class="d" d="M253.32,57.39c0,2.8-.46,5.28-1.39,7.43-.93,2.16-2.24,3.81-3.94,4.98-1.7,1.16-3.64,1.74-5.82,1.74s-4.11-.56-5.8-1.69c-1.69-1.12-3-2.73-3.94-4.82-.94-2.09-1.44-4.49-1.48-7.19v-1.62c0-2.81,.46-5.29,1.38-7.44,.92-2.15,2.24-3.81,3.95-4.98,1.71-1.17,3.67-1.75,5.86-1.75s4.1,.58,5.8,1.73c1.7,1.16,3.02,2.8,3.96,4.94,.94,2.14,1.42,4.58,1.43,7.34v1.32Zm-6.27-1.2c0-2.85-.42-5.02-1.27-6.49-.85-1.48-2.06-2.22-3.64-2.22-3.09,0-4.72,2.6-4.9,7.81l-.02,2.11c0,2.81,.42,4.97,1.25,6.48,.83,1.51,2.07,2.27,3.71,2.27s2.76-.74,3.6-2.23c.84-1.48,1.27-3.62,1.28-6.41v-1.32Z"/><path class="d" d="M277.19,61.43c-.08,2-.56,3.76-1.44,5.29-.88,1.53-2.11,2.72-3.7,3.56-1.59,.84-3.4,1.26-5.44,1.26-3.36,0-6.01-1.23-7.94-3.69-1.93-2.46-2.9-5.93-2.9-10.41v-1.42c0-2.81,.44-5.27,1.31-7.38,.87-2.11,2.13-3.74,3.77-4.89,1.64-1.15,3.54-1.72,5.69-1.72,3.1,0,5.6,.92,7.48,2.75,1.88,1.83,2.96,4.36,3.21,7.58h-6.15c-.05-1.75-.44-3-1.18-3.76-.74-.76-1.86-1.14-3.37-1.14s-2.66,.64-3.37,1.93c-.71,1.29-1.09,3.34-1.12,6.17v2.03c0,3.06,.34,5.25,1.03,6.56,.69,1.31,1.86,1.97,3.54,1.97,1.42,0,2.5-.37,3.25-1.12,.75-.75,1.15-1.94,1.19-3.57h6.13Z"/><path class="d" d="M294.63,65.79h-8.45l-1.48,5.36h-6.59l9.38-28.7h5.8l9.45,28.7h-6.62l-1.49-5.36Zm-6.97-5.34h5.5l-2.76-9.95-2.74,9.95Z"/><path class="f" d="M205.61,96.23h-7.67v23.36h-6.16v-23.36h-7.53v-5.34h21.37v5.34Z"/><path class="f" d="M228.26,90.89v18.78c0,2.13-.4,3.97-1.21,5.53-.81,1.56-1.97,2.74-3.48,3.56-1.51,.81-3.3,1.22-5.36,1.22-3.11,0-5.57-.91-7.36-2.72-1.79-1.81-2.7-4.3-2.74-7.45v-18.92h6.2v19.06c.07,3.14,1.37,4.71,3.9,4.71,1.28,0,2.24-.39,2.9-1.18,.66-.79,.98-2.07,.98-3.84v-18.74h6.16Z"/><path class="f" d="M241.61,109.44h-3.34v10.15h-6.16v-28.7h10.06c3.03,0,5.4,.75,7.11,2.26,1.71,1.51,2.56,3.64,2.56,6.4,0,2-.36,3.65-1.08,4.96-.72,1.31-1.85,2.38-3.38,3.19l5.34,11.59v.3h-6.6l-4.51-10.15Zm-3.34-5.32h3.9c1.17,0,2.05-.35,2.64-1.04,.59-.69,.89-1.66,.89-2.89s-.3-2.21-.9-2.91c-.6-.7-1.48-1.06-2.63-1.06h-3.9v7.9Z"/><path class="f" d="M262.14,119.59h-6.15v-28.7h6.15v28.7Z"/><path class="f" d="M279.62,111.96c0-1.01-.32-1.8-.96-2.37-.64-.56-1.76-1.15-3.36-1.75-1.6-.6-2.92-1.19-3.93-1.75-3.31-1.83-4.97-4.34-4.97-7.53,0-1.59,.41-2.99,1.24-4.21,.83-1.22,1.99-2.16,3.5-2.84,1.51-.68,3.21-1.02,5.09-1.02s3.49,.37,4.94,1.1c1.46,.74,2.59,1.78,3.4,3.14,.81,1.36,1.21,2.91,1.21,4.66h-6.15c0-1.17-.32-2.08-.96-2.72-.64-.64-1.5-.97-2.59-.97s-1.97,.27-2.61,.82c-.64,.55-.96,1.24-.96,2.08,0,.74,.35,1.4,1.05,2,.7,.6,1.94,1.22,3.71,1.85,1.77,.64,3.22,1.32,4.36,2.06,2.76,1.79,4.14,4.25,4.14,7.39,0,2.51-.84,4.48-2.53,5.91-1.69,1.43-4,2.15-6.94,2.15-2.07,0-3.95-.42-5.63-1.25-1.68-.83-2.94-1.98-3.79-3.43-.85-1.45-1.27-3.12-1.27-5.02h6.18c0,1.54,.35,2.67,1.06,3.4,.71,.73,1.86,1.09,3.45,1.09,1.02,0,1.82-.25,2.41-.74,.59-.49,.89-1.19,.89-2.08Z"/><path class="f" d="M297.04,90.89l5.71,19.97,5.69-19.97h8.11v28.7h-6.18v-6.7l.6-13.72-6.18,20.42h-4.07l-6.2-20.44,.6,13.74v6.7h-6.16v-28.7h8.1Z"/><path class="f" d="M342.12,105.83c0,2.8-.46,5.28-1.39,7.43-.93,2.16-2.24,3.81-3.94,4.98-1.7,1.16-3.64,1.74-5.82,1.74s-4.11-.56-5.8-1.69c-1.69-1.12-3-2.73-3.94-4.82-.94-2.09-1.44-4.49-1.48-7.19v-1.62c0-2.81,.46-5.29,1.38-7.44,.92-2.15,2.24-3.81,3.95-4.98,1.71-1.17,3.67-1.75,5.86-1.75s4.1,.58,5.8,1.73c1.7,1.16,3.02,2.8,3.96,4.94,.94,2.14,1.42,4.58,1.43,7.34v1.32Zm-6.27-1.2c0-2.85-.42-5.02-1.27-6.49-.85-1.48-2.06-2.22-3.64-2.22-3.09,0-4.72,2.6-4.9,7.81l-.02,2.11c0,2.81,.42,4.97,1.25,6.48,.83,1.51,2.07,2.27,3.71,2.27s2.76-.74,3.6-2.23c.84-1.48,1.27-3.62,1.28-6.41v-1.32Z"/></g></g></g></svg>